<?xml version="1.0" standalone="no"?>
<!DOCTYPE svg PUBLIC "-//W3C//DTD SVG 1.1//EN" "http://www.w3.org/Graphics/SVG/1.1/DTD/svg11.dtd" >
<svg xmlns="http://www.w3.org/2000/svg">
<metadata>
This is a custom SVG webfont generated by Font Squirrel.
</metadata>
<defs>
<font id="webfontEqJqoBxP" horiz-adv-x="1124" >
<font-face units-per-em="2048" ascent="1638" descent="-410" />
<missing-glyph horiz-adv-x="552" />
<glyph unicode=" "  horiz-adv-x="552" />
<glyph unicode="&#x09;" horiz-adv-x="552" />
<glyph unicode="&#xa0;" horiz-adv-x="552" />
<glyph unicode="!" horiz-adv-x="567" d="M219 311l-57 13l121 987q2 27 2.5 48.5t-2.5 37.5q-5 32 -14 45l-9 12l10 47l21 11q21 12 56 23t63 11q53 0 84.5 -11.5t41.5 -37.5q10 -24 10 -51v-5q-1 -30 -15.5 -79t-31.5 -94l-41 -111q-23 -67 -38 -123zM254 84q0 -46 -32 -78.5t-77 -32.5q-46 0 -78 32.5t-32 78.5 q0 44 32.5 76.5t77.5 32.5t77 -32.5t32 -76.5z" />
<glyph unicode="&#x22;" horiz-adv-x="786" d="M285 1554h106l-55 -165q-22 -66 -58 -125.5t-95.5 -105.5t-125.5 -46q-37 0 -43 6q48 36 83 95t55 115l36 110q18 52 41.5 84t55.5 32zM612 1554h107l-55 -165q-16 -48 -41.5 -94t-60 -88.5t-81 -68.5t-96.5 -26q-37 0 -43 6q48 36 83 95t55 115l36 110q18 52 41 84 t55 32z" />
<glyph unicode="#" horiz-adv-x="1441" d="M147 782l39 131q0 -4 301 -8q67 248 78 305q8 40 9 77t-1 50q56 39 97 39q44 0 50 -43q2 -12 2 -26q0 -33 -11 -74q-16 -67 -97 -328h271q51 190 78 305q8 43 8 127q56 39 96 39q16 0 27 -5t16 -16t7.5 -21.5t1 -30t-4 -33t-6.5 -37.5q-9 -44 -96 -328h98h102q48 0 85 1 t63.5 5t36.5 11q-11 -31 -28 -54.5t-37.5 -38t-45 -24.5t-50.5 -14.5t-54.5 -7t-57 -1.5t-57.5 0h-94l-35 -119q-28 -93 -45 -145h104h103q48 0 85.5 1t64 5t36.5 11q-11 -31 -28 -54.5t-37.5 -38t-45.5 -24.5t-51.5 -14.5t-55 -7t-57 -1.5t-57.5 0h-98q-66 -219 -104 -379 l-146 -30q90 280 127 409h-274q-62 -206 -105 -379l-145 -30q95 302 127 411h-264q-29 0 -37 -2l41 131q-1 -2 43 -3.5t101 -2.5t155 -2l78 266h-269q-28 0 -37 -2zM770 518l80 264h-272l-82 -264h274z" />
<glyph unicode="$" horiz-adv-x="937" d="M385 -217h-100q21 116 39 190q-124 1 -193.5 49.5t-69.5 114.5q0 49 41 90q3 -45 75 -81.5t167 -36.5h6q95 476 96 483l-40 32l-42 32l-39 34q-19 16 -36 34.5t-32 37.5t-27.5 41t-21 44t-13.5 48t-5 53q0 91 48 183t143 161.5t213 81.5q5 29 10.5 77.5t7.5 64.5 q52 10 60 10q41 0 41 -43q0 -21 -21 -107q110 -6 182 -49.5t72 -116.5q0 -49 -37 -108q0 55 -70.5 95t-174.5 46l-97 -450q52 -35 82 -57.5t73.5 -62t67.5 -74t42 -83t18 -100.5q0 -161 -122.5 -283t-307.5 -151zM637 305q4 24 4 35q0 54 -31 99.5t-90 95.5 q-18 -88 -78 -416q74 18 127 64t68 122zM367 1067q-2 -8 -2 -29q0 -102 127 -194l40 193q30 147 39 202q-80 -11 -135 -53.5t-69 -118.5z" />
<glyph unicode="%" horiz-adv-x="1605" d="M391 0h-145l712 1026q185 275 189 324q40 30 82 30q61 0 61 -41q0 -32 -39.5 -91.5t-56.5 -78.5q-2 -3 -186 -262l-370 -532q-188 -273 -247 -375zM1247 662q-178 0 -303 -129.5t-125 -321.5q0 -116 59.5 -175t157.5 -59q119 0 220.5 63t159 166t57.5 220 q0 114 -61.5 175t-164.5 61zM1102 59q-68 0 -102.5 49.5t-34.5 137.5q0 147 63 239.5t154 92.5q71 0 110 -49.5t39 -137.5q0 -144 -70 -238t-159 -94zM547 1378q-179 0 -303.5 -129t-124.5 -321q0 -116 59.5 -175t157.5 -59q119 0 220 63t158.5 166t57.5 220q0 113 -61 174 t-164 61zM401 776q-68 0 -102.5 49.5t-34.5 137.5q0 147 63 239t154 92q72 0 111 -49t39 -137q0 -144 -70.5 -238t-159.5 -94z" />
<glyph unicode="&#x26;" horiz-adv-x="1384" d="M786 512q23 74 93.5 135.5t134.5 61.5q39 0 60.5 -23.5t21.5 -85.5q0 -89 -31.5 -168.5t-81.5 -134.5t-111 -95.5t-122 -59.5t-113 -19q-153 0 -234 90t-81 225q0 88 32.5 174t98.5 159.5t155 111.5l-4 26q-57 66 -57 195q0 83 31.5 159t95.5 126.5t145 50.5q33 0 61 -6 t55.5 -21t43.5 -45t16 -72q0 -4 -1 -11t-1 -11q25 -14 60 -14q49 0 88 35.5t39 88.5t-54 91.5t-123 54.5t-137 16q-128 0 -244 -49.5t-192 -147t-76 -221.5q0 -67 33.5 -132.5t89.5 -108.5q-76 -30 -140.5 -75t-118.5 -107.5t-85 -147.5t-31 -182q0 -174 119 -288t293 -114 q177 0 324.5 78.5t241 218t114.5 316.5q19 154 35 202q86 47 136 124.5t50 177.5q0 12 -4 40l-31 -53q-11 -19 -38 -50.5t-56 -51.5q-51 -35 -161.5 -74.5t-157.5 -64.5q-78 -41 -133.5 -116t-55.5 -153q0 -31 8 -55z" />
<glyph unicode="'" horiz-adv-x="425" d="M287 1554h106l-55 -165q-22 -66 -58 -125.5t-95.5 -105.5t-125.5 -46q-37 0 -43 6q48 36 83 95t55 115l36 110q18 52 41.5 84t55.5 32z" />
<glyph unicode="(" horiz-adv-x="651" d="M834 1380q-106 0 -211 -73.5t-189.5 -198.5t-150.5 -280.5t-102 -330.5t-36 -337q0 -188 37 -341t110.5 -246t170.5 -93q-10 0 -33 48.5t-48.5 128t-45 207.5t-19.5 263q0 178 34 352.5t87 307t115.5 247.5t121 189t101 115.5t58.5 41.5z" />
<glyph unicode=")" horiz-adv-x="651" d="M139 1380q107 0 185 -82t115.5 -217t37.5 -307q0 -204 -67 -437t-168 -420.5t-229 -312t-242 -124.5q8 0 49 48.5t101 131.5t126.5 209t123.5 266t94.5 318t37.5 350q0 127 -20 241.5t-48 184t-54.5 110.5t-41.5 41z" />
<glyph unicode="*" horiz-adv-x="823" d="M524 1274l-14 -25l-6 -6h61q81 0 119 0.5t77 4.5t50 12q-6 -37 -23 -63.5t-38.5 -41t-54.5 -22.5t-61.5 -10.5t-68.5 -2.5h-59l8 -12l68 -114q29 -51 52 -84.5t36 -39.5q-34 -12 -62 -12t-54 12t-43 26t-39 46.5t-32.5 50t-33.5 60.5l-9 24l-10 -24l-49 -83l-38 -69 t-25 -52.5t-9 -35.5v-4q-59 48 -59 115q0 30 13.5 68.5t27.5 64.5t41 71q-39 2 -111 2q-150 0 -174 -18q5 29 17.5 51.5t26.5 37t38.5 24.5t43 15t51 7.5t51.5 3t55 0.5h14l-4 6q-123 224 -158 238q35 12 60 12q32 0 60 -14t54.5 -45t41.5 -53.5t42 -67.5l9 -22l8 22 q127 207 127 250v4q59 -48 59 -113q0 -28 -13 -65t-25.5 -61t-37.5 -68z" />
<glyph unicode="+" horiz-adv-x="964" d="M535 139h-132q9 0 9 318q-49 0 -110 0.5t-104 1t-48 0.5q-29 0 -37 -2v131q0 -8 299 -8v26v102q0 48 -1 85t-5 62t-11 34q47 10 66 10q32 0 50 -13.5t22.5 -36t6 -52.5t-0.5 -62q0 -4 -1 -57.5t-1 -97.5h43h102q48 0 85 1t62.5 5t34.5 10q-5 -31 -17.5 -54t-30 -37.5 t-40 -25t-48 -14.5t-53.5 -6.5t-56.5 -1.5t-57.5 0h-26q-3 -99 -3 -281q0 -29 3 -37z" />
<glyph unicode="," horiz-adv-x="428" d="M90 68q-2 0 -2 20q0 49 36.5 77t88.5 28q37 0 66.5 -32.5t29.5 -80.5q0 -83 -84.5 -188t-244.5 -195l-27 49q105 92 144.5 145.5t39.5 118.5q0 58 -47 58z" />
<glyph unicode="-" horiz-adv-x="618" d="M45 436l27 131q-1 -4 38.5 -5.5t76.5 -2t104 -0.5h103q48 0 85 1t63 5t36 10q-11 -31 -28 -54t-37 -37.5t-44.5 -25t-51 -14.5t-55.5 -6q-20 -2 -40 -2h-16q-29 1 -58 0q-27 0 -90 1t-76 1q-29 0 -37 -2z" />
<glyph unicode="." horiz-adv-x="432" d="M313 84q0 -46 -32 -78.5t-76 -32.5q-46 0 -78.5 32.5t-32.5 78.5q0 45 32.5 77t78.5 32q44 0 76 -32.5t32 -76.5z" />
<glyph unicode="/" horiz-adv-x="729" d="M150 -500h-162q247 729 399 1243.5t152 597.5q8 14 54.5 32t86.5 18q43 0 43 -54q0 -24 -9 -56.5t-22.5 -69t-15.5 -42.5l-290 -891q-198 -616 -236 -778z" />
<glyph unicode="0" horiz-adv-x="1142" d="M82 371q0 -201 89.5 -300.5t234.5 -99.5q113 0 215.5 45t181.5 124.5t138 184.5t89.5 229t30.5 253q0 196 -90.5 296.5t-243.5 100.5q-180 0 -328.5 -112.5t-232.5 -303.5t-84 -417zM489 78q-104 0 -161.5 101.5t-57.5 271.5q0 162 48 306t131.5 232t179.5 88 q110 0 174.5 -99t64.5 -265q0 -128 -34.5 -247t-89 -202t-122.5 -133.5t-133 -52.5z" />
<glyph unicode="1" horiz-adv-x="634" d="M350 0h-196l2 8l168 864q8 40 8 71v18q-4 36 -19 51l-166 -54l-30 99l368 151h29l35 -86l-37 -157l-147 -811q-15 -69 -15 -154z" />
<glyph unicode="2" horiz-adv-x="897" d="M14 0h555q58 0 98.5 15.5t59 41t26 48.5t7.5 47q0 2 -1 6t-1 6q-22 -19 -56.5 -22t-183.5 -3h-305l27 18l72 49q45 32 102 78l117 100q60 54 117 119.5t102 131t72.5 140t27.5 143.5q0 55 -15.5 103t-48.5 90t-94 66.5t-143 24.5q-139 0 -240.5 -56.5t-101.5 -141.5 q0 -33 21.5 -50.5t54.5 -17.5q32 0 69 20q0 56 49 101t113 45q71 0 103 -60.5t32 -146.5q0 -91 -46 -193.5t-114.5 -188t-148.5 -165.5t-148.5 -135.5t-114.5 -88.5l-46 -34z" />
<glyph unicode="3" horiz-adv-x="880" d="M-2 -170q-88 0 -88 90q32 -4 51 -4q71 0 141.5 11.5t147 43.5t134 80.5t95 129.5t37.5 184q0 50 -13 87t-31 58t-49 36.5t-54.5 21.5t-59.5 12l35 55q115 48 183.5 138t68.5 190q0 59 -32 99t-103 40q-63 0 -109 -39t-53 -105q-37 -22 -74 -22q-31 0 -51 18.5t-20 46.5 q0 84 100 143.5t231 59.5q83 0 145.5 -20t97 -54t51 -72.5t16.5 -82.5q0 -191 -308 -334q129 -20 186.5 -89t57.5 -167q0 -96 -32.5 -178.5t-88.5 -142t-128.5 -105.5t-155.5 -73.5t-165.5 -41.5t-162.5 -14z" />
<glyph unicode="4" horiz-adv-x="962" d="M41 203l-21 30q65 129 220.5 347.5t311.5 403t222 224.5h121l-21 -86l-34 -157l-40 -205q-41 -204 -79 -418q109 0 150.5 4t60.5 21v-9q0 -24 -4 -44q-6 -23 -23.5 -50.5t-58.5 -43.5t-103 -17h-47q-4 -20 -18.5 -99t-20.5 -118q-14 -70 -14 -154h-197l3 8l69 363h-477z M688 1004q-75 -71 -230.5 -286.5t-242.5 -375.5h332l98 506q9 46 43 156z" />
<glyph unicode="5" horiz-adv-x="897" d="M315 1178h301q150 0 185 3t57 21q0 -28 -5.5 -51.5t-22.5 -51.5t-58 -44.5t-102 -16.5h-310l-53 -247q54 0 107.5 -11t108.5 -39t97 -69t68.5 -106.5t26.5 -147.5q0 -121 -41 -222t-107 -167t-153 -112t-176.5 -66.5t-178.5 -20.5q-30 0 -49.5 12t-26 32t-7.5 28t-1 18 q30 -4 50 -4q66 0 130 14.5t127.5 50t111.5 88.5t78 136.5t30 187.5q0 68 -19 122t-47 86t-64 53t-67 28.5t-59 7.5q-26 0 -45 -3l-19 -3l-12 33l109 434z" />
<glyph unicode="6" horiz-adv-x="1052" d="M797 1368q-93 0 -191.5 -39.5t-192.5 -120.5t-168.5 -192t-119.5 -266.5t-45 -331.5q0 -216 89.5 -330.5t244.5 -114.5q94 0 176.5 32.5t142.5 88.5t103 130.5t64.5 160t21.5 174.5q0 144 -77 216.5t-194 72.5q-89 0 -180.5 -41t-153.5 -107q59 258 197 399.5t291 141.5 q66 0 135.5 -30t95.5 -76q17 34 17 71q0 52 -44.5 90.5t-101 55t-110.5 16.5zM457 78q-50 0 -86.5 26.5t-55.5 73t-27.5 100t-8.5 117.5q0 112 24 240q124 104 227 104q193 0 193 -221q0 -197 -77.5 -318.5t-188.5 -121.5z" />
<glyph unicode="7" horiz-adv-x="817" d="M170 -49l723 1192l-27 35h-475h-79q-33 0 -57 0.5t-40 1.5t-26.5 4t-16 7t-10.5 11q-10 -23 -15 -45t1.5 -53t29.5 -53t79.5 -38t141.5 -16q94 0 157 6.5t79 13.5l16 7l-563 -944q-67 -120 -103.5 -162t-70.5 -55q19 -16 46 -25q22 -7 51 -7q5 0 10 1q35 1 75 31t74 88z " />
<glyph unicode="8" horiz-adv-x="958" d="M375 -29q-60 0 -116 16t-104 48.5t-77 88.5t-29 128q0 71 25 138t63 116t85 90t89.5 65t77.5 35q-73 68 -117.5 149t-44.5 161q0 167 122 264.5t310 97.5q132 0 209.5 -67t77.5 -171q0 -50 -17 -97t-44 -81t-60.5 -66t-66.5 -52l-63 -40q-29 -18 -48 -26 q71 -66 115 -115.5t79.5 -119.5t35.5 -138q0 -100 -43.5 -182t-115 -134t-160 -80t-183.5 -28zM446 645q-26 -12 -51 -27.5t-62 -47t-64 -68t-46.5 -92t-19.5 -117.5q0 -94 49 -152.5t139 -58.5q118 0 196.5 79t78.5 171q0 79 -55.5 149.5t-164.5 163.5zM426 1096 q-2 -11 -2 -29q0 -62 43 -122t123 -130l35 21q28 17 45 28.5t43.5 36.5t42 51t27.5 66.5t12 87.5q0 71 -39.5 115.5t-122.5 44.5t-137.5 -44.5t-69.5 -125.5z" />
<glyph unicode="9" horiz-adv-x="1052" d="M666 1204q-129 0 -232.5 -48t-168.5 -130.5t-99.5 -186.5t-34.5 -221q0 -143 77 -215.5t193 -72.5q89 0 180.5 40.5t153.5 106.5q-30 -131 -83.5 -235.5t-119.5 -170t-139 -100t-145 -34.5q-66 0 -136 29.5t-96 76.5q-16 -36 -16 -72q0 -51 44.5 -89.5t101 -55 t110.5 -16.5q93 0 191.5 39.5t192.5 120.5t168.5 192t119.5 266.5t45 331.5q0 88 -16.5 164t-50.5 140.5t-95.5 102t-144.5 37.5zM596 1100q92 0 134 -83.5t42 -219.5v-45q0 -20 -1 -41t-3 -44t-6.5 -53.5t-11.5 -70.5q-123 -105 -228 -105q-192 0 -192 221q0 197 77.5 319 t188.5 122z" />
<glyph unicode=":" horiz-adv-x="528" d="M319 84q0 -46 -32 -78.5t-76 -32.5q-46 0 -78.5 32.5t-32.5 78.5q0 44 32.5 76.5t78.5 32.5q44 0 76 -32.5t32 -76.5zM436 676q0 -46 -32 -78.5t-76 -32.5q-46 0 -78.5 32.5t-32.5 78.5q0 44 32.5 76t78.5 32q44 0 76 -32t32 -76z" />
<glyph unicode=";" horiz-adv-x="528" d="M436 676q0 -46 -32 -78.5t-76 -32.5q-46 0 -78.5 32.5t-32.5 78.5q0 44 32.5 76t78.5 32q44 0 76 -32t32 -76zM98 68q-2 0 -2 20q0 49 36.5 77t88.5 28q37 0 66.5 -32.5t29.5 -80.5q0 -83 -84.5 -188t-244.5 -195l-27 49q105 92 144.5 145.5t39.5 118.5q0 58 -47 58z" />
<glyph unicode="&#x3c;" horiz-adv-x="755" d="M268 506l26 21q26 21 42 42l227 303l15 18q15 18 39 39t42 27h-30q-60 0 -130.5 -23t-109.5 -67l-268 -319l-41 -41l45 -45l272 -322q37 -43 104.5 -65.5t127.5 -22.5h30q-21 9 -43 27.5t-34 32.5l-11 14l-231 313q-19 23 -46 46z" />
<glyph unicode="=" horiz-adv-x="983" d="M113 600v131q0 -8 467 -8h102q48 0 85 1t62.5 5t34.5 10q-5 -31 -17.5 -54t-30 -37.5t-40 -25t-48 -14.5t-53.5 -6.5t-56.5 -1.5t-57.5 0q-27 0 -212.5 1t-198.5 1q-29 0 -37 -2zM113 293v131q0 -8 467 -8h102q48 0 85 1t62.5 5t34.5 10q-5 -31 -17.5 -54t-30 -37.5 t-40 -25t-48 -14.5t-53.5 -7q-20 -1 -40 -1h-17q-28 1 -57 0q-27 0 -212.5 1t-198.5 1q-29 0 -37 -2z" />
<glyph unicode="&#x3e;" horiz-adv-x="755" d="M473 506l-26 21q-26 21 -41 42l-228 303l-15 18q-15 18 -39 39t-42 27h31q59 0 129.5 -23t109.5 -67l271 -319q10 -13 25 -27l14 -14l-46 -45l-272 -322q-36 -43 -104 -65.5t-127 -22.5h-31q21 9 43 27.5t33 32.5l12 14l231 313q19 23 45 46z" />
<glyph unicode="?" horiz-adv-x="841" d="M272 334l-45 -23q-110 58 -110 152q0 20 2 31q13 66 50 131t86 118t105 106l110 103q53 51 97 102t70.5 110.5t26.5 119.5q0 156 -177 156q-61 0 -115.5 -45.5t-54.5 -124.5q0 -7 1 -18t1 -17q-36 -43 -96 -43q-46 0 -68 25t-22 59q0 81 57.5 144.5t143.5 94.5t180 31 q152 0 234.5 -85t82.5 -222q0 -76 -32.5 -150t-84.5 -135.5t-115 -121.5l-125 -114q-63 -54 -115 -105t-84.5 -105.5t-32.5 -104.5q0 -42 30 -69zM291 84q0 -46 -32 -78.5t-77 -32.5q-46 0 -78 32.5t-32 78.5q0 44 32 76.5t78 32.5q45 0 77 -32.5t32 -76.5z" />
<glyph unicode="@" horiz-adv-x="1847" d="M1194 -53h2q-122 0 -169.5 52.5t-47.5 143.5q0 47 16 103q-20 -44 -50 -88.5t-69 -87.5t-88 -70t-96 -27q-71 0 -123 49t-77 124t-25 163q0 150 51.5 286t139 234t209 155.5t255.5 57.5q96 0 195 -30q-35 -94 -90.5 -375.5t-75.5 -474.5q0 -62 19 -90.5t75 -28.5 q52 0 111 37.5t114.5 107.5t92 187.5t36.5 259.5q0 163 -77.5 299.5t-215 216.5t-305.5 80q-153 0 -292.5 -67.5t-240.5 -182t-160.5 -274t-59.5 -336.5q0 -254 129 -426.5t348 -212.5q14 -4 49 -4q59 0 80 12q-43 -121 -199 -121q-118 0 -223.5 62.5t-178.5 164.5 t-116 234.5t-43 269.5q0 200 78.5 385.5t208 319t303 213.5t356.5 80q153 0 283 -51t219 -140.5t139 -213.5t50 -267t-34.5 -265.5t-90.5 -206t-127 -143t-143.5 -87t-141.5 -27.5zM989 317l135 627q-12 2 -34 2q-180 0 -307.5 -166t-127.5 -434q0 -225 125 -225 q49 0 107 62t102 134z" />
<glyph unicode="A" d="M35 0h-146l678 1221q23 47 50 79t58 48.5t52 24t55 13.5t45 9q0 -67 15 -174l151 -1057q6 -79 37 -164h-231q1 10 -0.5 34.5t-1.5 35.5q-44 314 -58 401h-456l-238 -444q-4 -8 -10 -27zM641 1153l-303 -584h391q-12 74 -46.5 318t-41.5 266z" />
<glyph unicode="B" horiz-adv-x="1075" d="M94 0l29 139l180 946q14 81 14 127q0 27 -4 47t-9.5 30.5t-10.5 23.5l20 35l357 10h20q81 0 144 -22t100 -59t55.5 -81.5t18.5 -93.5q0 -108 -67 -187t-187 -145q96 -32 158.5 -106.5t62.5 -184.5q0 -113 -44 -204.5t-121 -151t-179 -91.5t-219 -32h-318zM514 698l-84 4 q-71 -351 -111 -604h130q74 0 133.5 21.5t96.5 56t61.5 80t34 90t9.5 90.5q0 123 -73.5 190t-196.5 72zM557 797q69 0 131 -13q54 42 96.5 114.5t42.5 168.5q0 85 -51 133q-49 45 -126 45h-7l-98 -2q-48 -205 -94 -446h106z" />
<glyph unicode="C" horiz-adv-x="1257" d="M1077 311q2 -4 2 -18q0 -92 -77 -166.5t-193.5 -114t-243.5 -39.5q-115 0 -203.5 39.5t-142.5 110t-81 163t-27 203.5q0 197 62.5 364t169 279.5t249 176t301.5 63.5q128 0 232.5 -50t125.5 -120q-7 -36 -58.5 -100.5t-102.5 -85.5l-29 26q2 7 2 19q0 26 -12 56.5 t-35.5 61t-68.5 50.5t-103 20q-123 0 -223 -63.5t-161 -165.5t-93.5 -223t-32.5 -244q0 -94 20 -172t61 -139t108.5 -95t156.5 -34q98 0 213.5 52t183.5 146z" />
<glyph unicode="D" horiz-adv-x="1337" d="M510 0h-426l11 50q6 27 9 46l6 32q3 12 3 11l176 930q18 101 18 141q0 64 -24 103l22 35l457 10q104 0 194.5 -33t159.5 -95.5t108.5 -160.5t39.5 -221q0 -145 -40 -277.5t-111.5 -235t-165.5 -179t-206.5 -116.5t-230.5 -40zM555 109q78 0 162.5 49.5t155.5 133.5 t117 211.5t46 268.5q0 206 -104 338.5t-270 132.5h-15l-115 -4q-5 -30 -99 -500t-120 -630h242z" />
<glyph unicode="E" horiz-adv-x="1003" d="M291 1085q15 74 16 123v11q0 41 -7 55q-9 17 -15 39l18 35h301l346 6q19 -29 19 -80q0 -20 -3 -44q-11 -84 -34 -104h-39q0 47 -53 78.5t-135 34.5l-170 6q-53 -204 -109 -500h315q28 0 47.5 6.5t25.5 13.5l5 7l-2 -41q-6 -33 -23.5 -56t-35.5 -34t-49 -16.5t-47 -6 t-48 -0.5q-2 0 -49 1t-89 2q-20 0 -39.5 0.5t-37.5 -0.5q-54 -292 -84 -480v-12h381q28 0 48.5 6.5t27.5 13.5l6 7l-4 -41q-6 -33 -23.5 -56t-36 -34.5t-49 -17t-47.5 -6.5t-47 -1h-487l27 139z" />
<glyph unicode="F" horiz-adv-x="962" d="M303 0h-219l27 139l180 946q15 74 16 123v11q0 41 -7 55q-9 17 -15 39l18 35h303l346 6q18 -29 18 -80q0 -20 -3 -44q-10 -85 -33 -104h-39q0 47 -53 78.5t-135 34.5l-172 6q-53 -204 -109 -500h315q28 0 47.5 6.5t25.5 13.5l5 7l-2 -41q-6 -33 -23.5 -56t-35.5 -34 t-49 -16.5t-47 -6t-48 -0.5q-2 0 -49 1t-89 2q-20 0 -39.5 0.5t-37.5 -0.5q-54 -292 -84 -480q-3 -6 -9 -57q-4 -35 -4 -60q0 -13 1 -24z" />
<glyph unicode="G" horiz-adv-x="1308" d="M893 1372h2q128 0 232.5 -50t125.5 -120q-7 -36 -58.5 -100.5t-102.5 -85.5l-29 26q2 7 2 19q0 26 -12 56.5t-36 61t-69 50.5t-104 20q-75 0 -148 -28t-138.5 -85.5t-115.5 -138.5t-79 -196t-29 -248q0 -214 98.5 -332.5t241.5 -118.5q41 0 116 16l74 15l31 158 q14 77 14 125q0 36 -8 63t-14 37l18 35l19 7q19 6 55 13t70 7q61 0 110 -25q-20 -79 -56.5 -238.5t-51.5 -271.5q-40 -3 -125 -21t-187.5 -33.5t-203.5 -15.5q-186 0 -305 143.5t-119 381.5q0 195 62.5 360.5t169.5 277t249 174t301 62.5z" />
<glyph unicode="H" horiz-adv-x="1474" d="M1290 541q-84 -416 -84 -521l2 -20h-215q0 29 1 42t8 50.5t17.5 83.5t35.5 171l55 282h-676l-16 -88q-26 -132 -55 -296.5t-29 -219.5l2 -25h-221q9 38 211 1087q14 81 14 127q0 51 -23 99l19 35l49 13q49 13 96 13q62 0 109 -24q-47 -196 -137 -615h677l63 327 q21 111 21 152q0 26 -4 45.5t-9.5 30t-10.5 23.5l20 35l47 13q47 13 95 13q63 0 110 -24q-138 -622 -172 -809z" />
<glyph unicode="I" horiz-adv-x="618" d="M322 0h-222q19 75 213 1090q15 78 15 127q0 35 -9 61t-16 37l21 35l48 13q48 13 97 13q62 0 109 -24q-104 -443 -175 -811q-84 -450 -84 -521q0 -6 1.5 -12.5t1.5 -7.5z" />
<glyph unicode="J" horiz-adv-x="649" d="M-223 -170q0 -84 88 -84q113 0 177.5 92.5t100.5 288.5q154 816 179 963q14 100 14 127q0 25 -4 44.5t-9.5 30t-11.5 23.5l23 35l18 6q19 7 54 13.5t69 6.5q64 0 111 -24q-106 -450 -174 -811l-40 -217q-37 -196 -38 -203q-20 -99 -65 -183.5t-103.5 -143.5t-128 -100.5 t-139.5 -61t-138 -19.5t-103.5 33t-35.5 80q0 44 32.5 77t82.5 33q18 0 41 -6z" />
<glyph unicode="K" d="M297 0h-221q34 145 213 1090q3 13 8.5 65.5t5.5 61.5q0 25 -4 44.5t-9.5 30t-10.5 23.5l20 35l48 13q48 13 95 13q62 0 109 -24q-80 -343 -141 -639l503 467q66 59 66 112q0 7 -4 23l20 35q59 22 140 22q91 0 108 -20q-50 -69 -98.5 -118.5t-177.5 -161.5l-379 -329 l260 -471q150 -265 164 -272h-258q-58 138 -153.5 324t-164.5 288l-33 58l-24 -129q-84 -438 -84 -521q0 -4 1 -11t1 -9z" />
<glyph unicode="L" horiz-adv-x="860" d="M741 0h-659q12 50 213 1090q8 46 11.5 82t2 57t-5 38t-8.5 26.5t-10 21.5l18 35l49 13q50 13 97 13q61 0 108 -24q-136 -613 -172 -811q-53 -263 -78 -428h232q86 0 149 30.5t82 77.5h37q7 -12 7 -32q0 -30 -14 -77q-22 -81 -59 -112z" />
<glyph unicode="M" horiz-adv-x="1763" d="M793 -43l-60 18q-43 10 -72.5 40t-39.5 59t-11 57l-174 830q-5 21 -7.5 69t-2.5 49q-18 -134 -89.5 -475t-107.5 -498q-12 -64 -12 -98v-8h-147l10 33l158 677q84 370 116 527q-20 67 -39 78l21 35q76 26 133 26q79 0 117 -30q8 -144 91.5 -557t131.5 -588l616 1075 q16 28 45.5 45.5t66 25t82 13t93.5 8.5l-72 -336q-76 -376 -159 -911q-11 -85 -11 -107v-14h-221l27 123q59 285 151 833q3 16 9.5 63.5t9.5 59.5l-68 -133l-497 -815z" />
<glyph unicode="N" horiz-adv-x="1474" d="M393 948q-9 -47 -34 -158.5t-35 -164.5q-90 -486 -99 -625h-143l6 33l139 731l66 330q12 70 12 117v13q-2 49 -22 91l20 35l20 8q10 4 22 7.5t23.5 6t24.5 2t25 -3.5l614 -948q21 -29 35 -80l14 -51l3 51q4 51 10 78l127 674q12 67 12 117q0 69 -23 104l21 35 q38 24 104 24q61 0 86 -22q-133 -575 -207 -961q-46 -254 -63 -391h-111l-579 911l-27 52q-27 52 -31 75q0 -38 -10 -90z" />
<glyph unicode="O" horiz-adv-x="1368" d="M872 1372q-151 0 -291 -63.5t-247 -176t-171.5 -281.5t-64.5 -366q0 -235 111.5 -373.5t277.5 -138.5t314.5 68.5t256 186.5t170 285.5t62.5 356.5q0 235 -115 368.5t-303 133.5zM608 96q-130 0 -208 128.5t-78 320.5q0 176 65 339t171 262t220 99q127 0 206 -124 t79 -316q0 -178 -65 -343.5t-170.5 -265.5t-219.5 -100z" />
<glyph unicode="P" horiz-adv-x="1050" d="M299 0h-221l8 33q31 124 121 611t90 570q0 68 -18 99l20 35l363 12q58 0 111.5 -9.5t106.5 -33t92 -60t63 -95.5t24 -134q0 -119 -46.5 -217.5t-126 -163t-183 -100t-218.5 -35.5q-51 0 -104 12q-76 -423 -82 -524zM524 614q145 0 245.5 106.5t100.5 274.5 q0 68 -21 118.5t-56.5 78t-75.5 40.5t-84 13l-109 -4q-19 -68 -62.5 -279t-60.5 -329q34 -19 123 -19z" />
<glyph unicode="Q" horiz-adv-x="1366" d="M872 1372q188 0 304 -134t116 -368q0 -176 -54 -333t-148.5 -273t-225 -191t-280.5 -93q48 -30 55 -35q215 -168 455 -168q82 0 152.5 35.5t107.5 87.5q8 -38 8 -56q0 -100 -88.5 -165.5t-220.5 -65.5q-63 0 -136.5 32.5t-142.5 82.5l-136 100q-66 51 -134 97t-117 63 q-130 38 -209.5 168.5t-79.5 328.5q0 197 64.5 366t171.5 281.5t247 176t291 63.5zM608 96q114 0 219.5 100t170.5 265.5t65 343.5q0 192 -79 316t-206 124q-114 0 -220 -99t-171 -262t-65 -339q0 -192 78 -320.5t208 -128.5z" />
<glyph unicode="R" horiz-adv-x="1155" d="M285 0h-219l6 33q211 1079 211 1181q0 66 -19 99l21 35q370 10 385 10q71 0 134.5 -17.5t118.5 -54.5t88 -103.5t33 -154.5q0 -181 -102.5 -304.5t-271.5 -178.5q24 -13 185.5 -269.5t182.5 -275.5h-258q-14 43 -39 93.5t-64 112.5l-66 102l-77 112l-63 92q-53 0 -104 12 q-76 -423 -82 -524zM510 614q146 0 246 106.5t100 274.5q0 68 -21 119t-57 78.5t-75.5 40t-84.5 12.5l-108 -4q-19 -65 -62 -276t-61 -332q34 -19 123 -19z" />
<glyph unicode="S" horiz-adv-x="925" d="M299 -27q-123 0 -209 56.5t-86 132.5q0 40 39 86q3 -45 91 -88t181 -43q50 0 97.5 10.5t93.5 34.5t74 69.5t28 108.5q0 46 -24.5 90.5t-63.5 82t-86 75.5l-94 80q-47 42 -86 86t-63.5 100.5t-24.5 118.5q0 167 124 286t322 119q122 0 210.5 -38.5t88.5 -71.5 q0 -52 -19.5 -113t-57.5 -92l-35 8q-7 52 -32.5 92t-60 62t-69 32.5t-66.5 10.5q-36 0 -75 -13t-74.5 -37t-58.5 -65t-23 -90q0 -45 26 -88.5t68 -80.5t92 -76l100 -80q51 -43 93 -89t68 -107.5t26 -129.5q0 -130 -68 -230.5t-185 -154.5t-261 -54z" />
<glyph unicode="T" horiz-adv-x="993" d="M827 1348h-407l-275 12q-52 -47 -71 -129q-11 -50 -11 -78q0 -18 5 -27h38q16 47 80 78t152 31h151q-4 -80 -20 -156l-66 -357l-133 -689l-6 -33h219q0 62 6 90q22 125 77 406l99 506q45 227 46 233h153q88 0 142 -31t51 -78h37q11 13 23 53t12 94t-23 87z" />
<glyph unicode="U" horiz-adv-x="1357" d="M1149 444q-40 -205 -202.5 -339t-399.5 -134q-75 0 -135 9.5t-112 32.5t-87 60t-54.5 94.5t-19.5 133.5q0 53 11 127q50 324 114 662q15 86 15 127q0 25 -3.5 44.5t-9 30t-10.5 23.5l20 35l48 13q48 13 96 13q65 0 110 -24q-52 -224 -180 -897q-12 -61 -12 -109 q0 -58 16.5 -102t42 -69t61 -40.5t66.5 -20.5t66 -5q146 0 261.5 80t143.5 194l9 35q8 34 44 212l91 464q14 71 14 120q0 64 -25 101l23 35q34 24 104 24q61 0 86 -22q-111 -467 -192 -908z" />
<glyph unicode="V" horiz-adv-x="1216" d="M557 -43l88 174l567 944q97 160 125 273q-34 28 -98 28q-66 0 -129 -26l-20 -35q24 -35 24 -78q0 -67 -59 -172l-408 -713q-26 -45 -51 -97t-23 -54q-38 150 -101.5 568t-68.5 570q-27 37 -102 37q-79 0 -143 -28l-21 -35q8 -3 21 -23.5t34 -92.5t35 -179l144 -887 q5 -129 116 -156z" />
<glyph unicode="W" horiz-adv-x="1785" d="M1184 -43l90 174l530 944q91 158 125 273q-40 20 -112 20q-69 0 -115 -20l-21 -35q25 -33 25 -78q0 -18 -4 -37q-10 -56 -55 -133l-371 -713q-26 -42 -50 -96l-24 -55q-33 136 -80.5 553.5t-52.5 584.5q-27 37 -104 37q-84 0 -150 -28l-20 -35q5 -2 14.5 -15.5t23 -43.5 t28 -92t24.5 -144l14 -121l-283 -545q-24 -42 -48 -96l-23 -55q-34 135 -82 552t-53 586q-29 37 -105 37q-83 0 -147 -28l-21 -35q8 -3 21 -23.5t34 -92.5t35 -179l113 -887q1 -21 6 -42t17 -45t36.5 -43t57.5 -26l69 -18l88 174l312 561l71 -561q1 -29 9.5 -57.5 t36.5 -58.5t71 -40z" />
<glyph unicode="X" horiz-adv-x="1097" d="M12 100l453 559l-123 361l-44 134q-16 50 -30.5 81t-28.5 47t-38 31l20 35q68 28 141 28q80 0 107 -37q18 -68 27 -108.5t40.5 -136t92.5 -265.5l57 78l137 174q86 107 97 160q3 15 3 28q0 26 -12 44l21 35q54 28 119 28q71 0 108 -28q-21 -56 -75.5 -135t-112.5 -146 l-301 -354l207 -592q10 -31 27 -61.5t30 -45.5l12 -14h-256l-182 537l-30 -42q-31 -42 -48 -61l-264 -323q-27 -36 -48 -73l-20 -38h-176z" />
<glyph unicode="Y" horiz-adv-x="890" d="M451 0h-220l7 33q66 333 69 350l43 233q-14 18 -31 64l-116 344q-16 42 -32 90l-24 72q-8 23 -18.5 48.5t-19 37.5t-20 23t-28.5 18l21 35q65 28 141 28q64 0 94 -37q25 -116 85.5 -309t95.5 -276l59 80l225 301q47 64 47 122q0 29 -12 56l21 35q67 28 118 28 q50 0 101 -28q-7 -36 -64 -129t-106 -152l-324 -405q-39 -195 -59 -310q-47 -241 -53 -352z" />
<glyph unicode="Z" horiz-adv-x="1241" d="M-51 0l2 41l65 63l865 1057l73 70h-452q-88 0 -153 -31t-81 -78h-37q-2 4 -2 27q0 50 19.5 113.5t60.5 101.5l275 -12h684l-2 -43l-64 -66l-856 -1044l-72 -66h506q88 0 153 31t81 78h39q4 -8 4 -27q0 -49 -21 -113t-63 -102h-1024z" />
<glyph unicode="[" horiz-adv-x="507" d="M551 1499l-21 -100h-190l-311 -1616h190l-22 -102h-316l352 1818h318z" />
<glyph unicode="\" horiz-adv-x="729" d="M563 -500h162q-247 729 -399 1243.5t-152 597.5q-8 14 -54.5 32t-86.5 18q-43 0 -43 -54q0 -24 9 -56.5t22.5 -69t15.5 -42.5q2 -5 57 -171l122 -376l140 -440l132 -420q58 -190 75 -262z" />
<glyph unicode="]" horiz-adv-x="509" d="M629 1499l-355 -1818h-315l18 102h189l317 1616h-190l18 100h318z" />
<glyph unicode="^" horiz-adv-x="1277" d="M1128 655h-143l-348 629l-348 -629h-144l435 795h114z" />
<glyph unicode="_" horiz-adv-x="921" d="M983 -154l-61 -122h-922v122h983z" />
<glyph unicode="`" horiz-adv-x="692" d="M305 1483h-119l54 -140q72 -186 235 -186q23 0 51.5 13.5t30.5 19.5q-49 16 -80.5 52.5t-46.5 76.5l-28 77q-13 38 -36 62.5t-61 24.5z" />
<glyph unicode="a" horiz-adv-x="1038" d="M827 348q-14 -110 -14 -153q0 -97 78 -97q17 0 33 4l16 4l14 -36l-32 -24q-32 -24 -86 -48.5t-97 -24.5q-44 0 -71.5 21.5t-36.5 53.5q-9 29 -9 67q0 42 8 77q7 33 17 62q-65 -120 -164.5 -200.5t-187.5 -80.5q-87 0 -150 85t-63 241q0 195 74 366t204 274t283 103 q41 0 155.5 -19t157.5 -22l-51 -256q-16 -86 -78 -397zM752 907l-58 13q-57 12 -102 12q-82 0 -156.5 -84.5t-120 -226.5t-45.5 -299q0 -103 37 -152t92 -49q92 0 244 192q97 414 109 594z" />
<glyph unicode="b" horiz-adv-x="1067" d="M322 1274q4 40 4 67q0 114 -64 117l8 37l22 13q21 12 63.5 25t84.5 13q56 0 79.5 -24t23.5 -74q-1 -71 -49 -281t-101 -393q79 121 189.5 194.5t208.5 73.5q204 0 204 -350q0 -95 -22.5 -193.5t-70.5 -193t-114 -168.5t-161.5 -119t-204.5 -45q-133 0 -217 46.5 t-84 136.5q0 55 98 559t103 559zM326 305q-7 -58 -7 -90q0 -64 31 -96.5t115 -32.5q74 0 133.5 37.5t97.5 97t64 137.5t36.5 155.5t10.5 154.5q0 237 -123 237q-57 0 -144 -63t-153 -148q-31 -173 -61 -389z" />
<glyph unicode="c" horiz-adv-x="944" d="M274 420q0 -126 59 -208.5t177 -82.5q84 0 169 47.5t157 132.5v-11q0 -81 -58 -154q-62 -79 -161.5 -125t-204.5 -46q-140 0 -235 109t-95 291q0 163 69 316t193 251t268 98q78 0 144.5 -16.5t111.5 -54.5t45 -90q0 -66 -59 -103q-27 -17 -56 -17q-31 0 -63 21 q0 67 -31.5 106.5t-115.5 39.5q-86 0 -160 -78.5t-114 -194t-40 -231.5z" />
<glyph unicode="d" horiz-adv-x="1062" d="M768 -27q-119 0 -119 166q0 24 4 66v8q-79 -111 -175.5 -175.5t-186.5 -64.5q-103 0 -161 88.5t-58 262.5q0 93 22 191t69 192t112 167.5t158.5 118.5t201.5 45q39 0 92.5 -9.5t77.5 -20.5l47 266q5 36 7 76v9q0 35 -15 65q-17 33 -51 34l8 37l21 13q22 12 64.5 25 t84.5 13q35 0 57.5 -11.5t32 -27t11.5 -43.5q1 -12 1 -24q0 -13 -1 -25q-3 -21 -9 -55q-3 -23 -53 -254l-56 -258q-104 -547 -104 -647q0 -103 72 -103q19 0 53 8l14 -36q-48 -36 -110 -66.5t-111 -30.5zM727 588l59 319l-16 7q-17 6 -60 12t-96 6q-76 0 -138.5 -38.5 t-101.5 -99t-65.5 -140.5t-37.5 -157.5t-11 -154.5q0 -231 117 -231q56 0 142.5 59.5t152.5 140.5q10 56 31.5 159t23.5 118z" />
<glyph unicode="e" horiz-adv-x="940" d="M406 -27q-142 0 -234 109q-88 107 -88 285v12q3 134 49.5 258t119.5 210.5t165.5 138.5t185.5 52q134 0 202 -58q66 -57 66 -153v-6q-2 -106 -82.5 -186.5t-205 -121t-269.5 -40.5h-41q-4 -32 -4 -53v-6q0 -68 22 -130q22 -64 75 -109.5t127 -45.5q84 0 174.5 48 t160.5 132v-11q0 -81 -58 -155q-62 -79 -161.5 -124.5t-203.5 -45.5zM575 924q-54 0 -105 -36t-87.5 -93t-62 -121.5t-35.5 -126.5q61 5 108 12.5t103 26t93 46t62.5 74.5t26.5 109v7q0 39 -22 69q-24 33 -81 33z" />
<glyph unicode="f" horiz-adv-x="655" d="M250 713l-125 -662l-8 -51h198q0 63 4 86l55 326q55 326 87 475q5 0 71 -1t80 -1q170 0 174 145l-4 -4l-12 -7q-7 -4 -22 -7.5t-35 -3.5h-240q8 17 12 47q30 204 81 284t136 80q42 0 65.5 -22t23.5 -56q27 -12 57 -12q38 2 64 26.5t26 65.5q0 57 -48.5 91t-119.5 34 q-43 0 -87 -11.5t-94 -41.5t-94 -76t-85 -121t-68 -170q-32 -114 -129 -122l-20 -62q67 -30 67 -135q0 -47 -10 -94z" />
<glyph unicode="g" horiz-adv-x="1003" d="M84 303q2 118 41.5 246t105 237.5t164.5 180.5t209 71q42 0 169.5 -17t166.5 -20l-51 -256q-1 -7 -23 -110l-57 -287q-14 -110 -14 -153q3 -60 5 -108t4 -77l2 -50q1 -20 1.5 -29t0.5 -13l1 -4q0 -91 -30.5 -165t-81 -122.5t-118.5 -82t-139.5 -48t-146.5 -14.5 q-155 0 -261 54.5t-106 148.5q0 17 5.5 36.5t17.5 43t37.5 38.5t60.5 15q24 0 46 -11t32 -32q-23 -48 -23 -80q0 -62 62.5 -93.5t157.5 -31.5q56 0 101.5 11.5t75.5 29.5t52.5 45.5t35 55t20 63t9.5 63.5t2 62q0 42 -7 111t-7 124q0 27 4 39q-46 -90 -133.5 -145.5 t-169.5 -55.5q-77 0 -128 45t-72 117t-21 168zM276 332q0 -211 117 -211q65 0 121.5 31.5t89.5 66.5q37 157 74 371.5t43 310.5l-47 13q-48 14 -92 14q-76 0 -148 -99.5t-114 -237.5t-44 -259z" />
<glyph unicode="h" horiz-adv-x="1099" d="M438 1546q53 0 75 -22t22 -70q0 -54 -60 -308t-82 -376q30 43 74 87t100.5 87t124 70.5t129.5 27.5q72 0 124 -51.5t52 -144.5q0 -46 -33 -214l-68 -355q-32 -181 -32 -272v-5h-194q0 12 14 98l52 265q21 113 31 172t15 91t6.5 49.5t2.5 20.5q4 46 4 64q0 121 -93 121 q-83 0 -174 -60.5t-149 -138.5q-32 -181 -65 -402t-35 -260v-20h-197l4 31q87 438 162.5 858t75.5 454q0 107 -68 115l10 37l22 13q21 12 64 25t86 13z" />
<glyph unicode="i" horiz-adv-x="542" d="M297 1313q0 43 32 74.5t77 31.5q43 0 73.5 -31.5t30.5 -74.5q-2 -44 -34 -77.5t-75 -33.5q-44 0 -75 34q-29 31 -29 72v5zM92 0l2 8q150 785 150 817q1 37 -15 55.5t-41 18.5q-10 0 -16 -2l-18 33q35 41 97 72.5t120 31.5q39 0 58 -27q17 -24 17 -61v-8q0 -19 -9.5 -63 t-21.5 -92.5t-14 -57.5q-9 -47 -45 -267l-51 -304q-12 -64 -12 -117q0 -25 -2 -37h-199z" />
<glyph unicode="j" horiz-adv-x="542" d="M86 -29q-19 -94 -67.5 -190.5t-116.5 -164.5t-131 -69q35 -57 92 -57q43 0 104 39t120.5 101.5t108.5 153t66 181.5l139 737q7 34 20 91.5t19 90.5t6 58q0 49 -19.5 70.5t-72.5 21.5q-48 0 -110.5 -36t-89.5 -68l18 -33q6 2 16 2q54 0 54 -68q3 -16 -156 -860zM303 1313 q0 43 32 74.5t77 31.5q43 0 73.5 -31.5t30.5 -74.5t-33.5 -77t-74.5 -34q-45 0 -75 33t-30 78z" />
<glyph unicode="k" horiz-adv-x="1003" d="M330 1348q0 101 -68 110l8 37l22 13q21 12 63.5 25t84.5 13q56 0 79.5 -24t23.5 -76q0 -22 -84 -422.5t-88 -425.5q196 46 299.5 117.5t103.5 132.5q0 51 -80 51q-10 0 -16 -2l-19 33q33 40 96 72t122 32q73 0 73 -73q0 -247 -409 -369q24 -12 51.5 -68.5t55.5 -126 t62.5 -138.5t86 -115t112.5 -46q28 0 62 8l14 -36q-36 -31 -104 -64t-119 -33q-60 0 -111.5 49t-88 125.5t-67 155.5t-64.5 154t-64 106q-38 -188 -62 -358.5t-24 -204.5h-199l6 31l234 1243q8 39 8 74z" />
<glyph unicode="l" horiz-adv-x="520" d="M281 0h-199l4 31l236 1243q7 40 7 72q0 35 -9 60q-16 46 -60 52l10 37l22 13q21 12 63.5 25t84.5 13q29 0 48.5 -7.5t31.5 -19t16.5 -35t4.5 -46t-7.5 -62.5t-15.5 -74l-22 -88q-49 -209 -117 -575.5t-94 -552.5q-4 -23 -4 -86z" />
<glyph unicode="m" horiz-adv-x="1697" d="M403 770q30 43 74 87t100 87t123 70.5t129 27.5q76 0 129 -58q47 -52 47 -139q0 -12 -1 -24q-3 -11 -7 -47q31 43 74.5 86.5t98.5 86t121 69t128 26.5q76 0 129 -58q46 -51 46 -137q0 -12 -1 -26q-3 -37 -36 -205t-64 -349t-31 -267h-194q0 12 14 98q72 377 107 598 q4 34 4 62q0 48 -12 77q-19 46 -78 46q-82 0 -172 -58t-150 -135q-28 -130 -68.5 -361t-40.5 -327h-194q0 12 14 98q91 467 107 598q4 34 4 62q0 49 -12 78q-19 45 -78 45q-84 0 -176 -60.5t-150 -138.5q-5 -32 -39 -220l-55 -308q-9 -64 -12 -117v-37h-199v8l147 770 q4 17 4 33q0 25 -9 49q-14 39 -46 39q-10 0 -16 -2l-19 33q33 40 96 72t121 32q76 0 76 -96q0 -63 -33 -168z" />
<glyph unicode="n" horiz-adv-x="1107" d="M403 770q30 43 74 87t100 87t123 70.5t129 27.5q76 0 129 -58q47 -52 47 -139q0 -12 -1 -24q-3 -36 -36.5 -204.5t-64.5 -349.5t-31 -267h-194q0 12 14 98q91 467 107 598q4 34 4 62q0 49 -12 78q-19 45 -78 45q-84 0 -176 -60.5t-150 -138.5q-5 -32 -39 -220l-55 -308 q-9 -64 -12 -117v-37h-199v8l147 770q4 17 4 33q0 25 -9 49q-14 39 -46 39q-10 0 -16 -2l-19 33q33 40 96 72t121 32q76 0 76 -96q0 -63 -33 -168z" />
<glyph unicode="o" horiz-adv-x="1030" d="M641 1038q-112 0 -213.5 -50.5t-176.5 -138.5t-120 -213t-47 -267v-15q0 -45 5 -86q6 -48 25.5 -104t51.5 -96.5t89.5 -67.5t133.5 -27q117 0 221 56.5t176.5 150t115.5 215.5t44 252v13q0 175 -82 274q-84 104 -223 104zM555 934q94 0 145 -89q48 -84 48 -223v-16 q-2 -224 -90.5 -378t-200.5 -154q-88 0 -134 90q-42 84 -42 216v23q1 44 8 102.5t26.5 136t48 141t78.5 107.5t113 44z" />
<glyph unicode="p" horiz-adv-x="1087" d="M184 -492h-196q73 364 88 457l155 826q2 10 2 28q0 37 -17.5 58.5t-41.5 21.5q-8 0 -14 -2l-19 33l27 26q28 26 79 52t97 26q41 0 60.5 -25.5t19.5 -64.5q0 -15 -7 -49.5t-16.5 -73t-11.5 -47.5q70 102 179.5 185t211.5 83q213 0 213 -352q0 -95 -22 -193.5t-68.5 -192.5 t-111.5 -167.5t-158 -118.5t-201 -45q-67 0 -172 33l-34 -206l-32 -200q-10 -68 -10 -92zM455 86q83 0 149 47t102 113t60 145.5t31.5 134.5t7.5 90q0 47 -1.5 81.5t-6 69.5t-13.5 58.5t-23 42.5t-35.5 28t-49.5 9q-60 0 -147.5 -71t-143.5 -138l-33 -190l-51 -281l-20 -110 h2q75 -29 172 -29z" />
<glyph unicode="q" horiz-adv-x="1071" d="M733 -498h-198q11 54 52 274t62 324q7 37 35 142q-80 -123 -183.5 -196t-199.5 -73q-103 0 -161 88.5t-58 262.5q0 95 22.5 193.5t70.5 192.5t114 168t161.5 119t204.5 45q100 0 217 -21t125 -22q-262 -1301 -264 -1497zM795 907l-19 5q-20 6 -65.5 12t-98.5 6 q-75 0 -135 -38.5t-98 -98.5t-63.5 -139.5t-35.5 -157t-10 -154.5q0 -231 117 -231q58 0 148 63.5t155 147.5l34 173l28 140q10 47 21.5 118t21.5 154z" />
<glyph unicode="r" horiz-adv-x="802" d="M281 0h-199l139 698q12 60 12 119q0 82 -55 82q-4 0 -9 -1l-5 -1l-19 33q28 37 92 70.5t111 33.5q90 0 90 -88q0 -36 -16 -90l-22 -58q-22 -59 -29 -108q11 28 32 67.5t58 90.5t79.5 93.5t99 71.5t112.5 29q60 0 87 -27t27 -67q0 -53 -38.5 -89.5t-92.5 -51.5 q-9 36 -33 54t-55 18q-54 0 -104.5 -43t-85 -104t-63.5 -139.5t-45 -138t-25 -110.5q-43 -218 -43 -344z" />
<glyph unicode="s" horiz-adv-x="808" d="M139 711q0 134 108 230.5t259 96.5q115 0 188.5 -44.5t73.5 -116.5q0 -45 -30.5 -80t-73.5 -35q-26 0 -56 22q6 28 6 54q0 46 -29.5 74t-107.5 28q-75 0 -126.5 -46.5t-51.5 -115.5q0 -37 22 -68.5t57.5 -55.5t78.5 -48t85.5 -51.5t78 -59.5t57.5 -78.5t22 -101.5 q0 -83 -34 -149.5t-91 -107.5t-126.5 -63t-145.5 -22q-68 0 -128 26t-93.5 66.5t-38.5 90.5q-1 6 -1 11q0 45 40 89q1 -58 80 -111t164 -53q37 0 69 8.5t59.5 27t43.5 52t16 78.5q0 32 -20.5 60.5t-54 51.5t-73.5 46.5t-79.5 51.5t-73 60.5t-54 79.5t-20.5 103z" />
<glyph unicode="t" horiz-adv-x="763" d="M512 1178l-55 -170h241q27 0 45.5 6t23.5 12l5 6q0 -2 1 -7t1 -7q0 -62 -52.5 -98.5t-125.5 -36.5q-18 0 -66 2t-67 2q-23 0 -29 -2q-1 -36 -55 -286.5t-55 -336.5v-8q0 -55 26 -84q29 -31 101 -31q54 0 120.5 36.5t92.5 64.5v-19q-1 -70 -50 -128.5t-121 -89t-145 -30.5 q-94 0 -155 52q-60 51 -60 148q0 81 60 333q59 249 61 328q0 30 -6 43q-7 15 -16.5 27.5t-18 19.5t-16.5 12t-14.5 7t-9.5 3h-3l23 62q10 0 22 3t42.5 16t72 52t86.5 99h96z" />
<glyph unicode="u" horiz-adv-x="1128" d="M750 897l-19 33q33 41 95.5 72.5t121.5 31.5q76 0 76 -96q0 -30 -10 -84.5t-19 -83.5l-100 -539q-4 -32 -4 -45q0 -47 23.5 -67.5t56.5 -20.5q25 0 45 8l14 -36q-43 -38 -112 -67.5t-115 -29.5q-113 0 -113 121q0 65 29 146q-30 -43 -74 -87.5t-100 -87.5t-123 -70.5 t-129 -27.5q-71 0 -122.5 53t-51.5 146q0 40 46.5 275.5t59.5 336.5q2 8 2 27q0 40 -13 67t-40 27q-10 0 -16 -2l-19 33q33 41 95.5 72.5t121.5 31.5q76 0 76 -96q0 -54 -26 -168q-14 -68 -44 -193.5t-43.5 -197.5t-13.5 -123q0 -63 24.5 -95t80.5 -32q83 0 176 60.5 t149 138.5q3 19 18 100l32 177l32 181v19q0 94 -51 94q-10 0 -16 -2z" />
<glyph unicode="v" horiz-adv-x="901" d="M176 698q-4 34 -10.5 63t-13.5 49t-15 35.5t-15.5 25t-16 16.5t-15 9.5t-13 3.5t-10.5 0.5t-7 -0.5l-3 -1l-20 35q43 41 97 70.5t99 29.5q51 0 73 -28t22 -97q0 -74 82 -600q16 -92 32 -137q121 162 222.5 365.5t101.5 304.5q0 49 -23 89t-67 50q26 45 102 45 q123 0 123 -129q0 -90 -52 -216t-110 -226q-76 -133 -237 -363l-80 -147l-57 18q-40 8 -65.5 37t-34 56.5t-9.5 54.5z" />
<glyph unicode="w" horiz-adv-x="1513" d="M176 698q-4 34 -10.5 63t-13.5 49t-15 35.5t-15.5 25t-16 16.5t-15 9.5t-13 3.5t-10.5 0.5t-7 -0.5l-3 -1l-20 35q43 41 97 70.5t99 29.5q51 0 73 -28t22 -97q0 -74 82 -600q16 -92 32 -137q112 150 209.5 340t112.5 301q-7 19 -15 34t-15.5 24.5t-15.5 16t-14.5 9 t-13 3.5t-10.5 0.5t-7 -0.5l-3 -1l-21 35q43 41 97 70.5t100 29.5q51 0 72.5 -28.5t21.5 -96.5q0 -65 82 -600q16 -94 33 -137q121 163 222 366t101 304q0 49 -22.5 89t-67.5 50q27 45 103 45q122 0 122 -129q0 -90 -51.5 -215t-109.5 -227q-78 -134 -238 -363l-80 -147 l-57 18q-40 8 -65.5 37t-34 56.5t-9.5 54.5l-63 469q-38 -78 -66 -125q-76 -133 -237 -363l-80 -147l-57 18q-40 8 -65.5 37t-34 56.5t-9.5 54.5z" />
<glyph unicode="x" horiz-adv-x="960" d="M432 850l82 -197l16 -49q234 199 234 311q0 58 -43 93q20 14 49 14q66 0 97.5 -36t31.5 -79q0 -25 -11.5 -54.5t-31.5 -57.5t-47 -58t-57 -57l-62 -56q-32 -29 -62 -53l-59 -47l183 -409l65 -115h-229l-23 76l-137 321l-10 -15q-9 -14 -23 -28l-254 -272l-61 -82h-156 l465 481l-90 207q-21 43 -40 88l-27 64q-7 19 -18.5 36.5t-23 22t-32.5 4.5q-17 0 -27 -2l-20 33q24 20 45.5 42.5t57.5 40t73 17.5q43 0 66 -18.5t38 -59.5t41 -106z" />
<glyph unicode="y" horiz-adv-x="921" d="M465 168q121 193 216 385.5t95 288.5q0 49 -22.5 89t-67.5 50q27 45 102 45q123 0 123 -129q0 -90 -51.5 -215t-109.5 -227l-119 -201l-139 -218q-78 -120 -153.5 -219t-151.5 -184.5t-146.5 -133.5t-124.5 -48q-71 0 -113.5 36t-42.5 95q0 47 15 88q4 -25 43 -40t84 -15 q183 0 432 358q-28 12 -44 39t-17.5 52t-6.5 47l-86 587q-8 64 -22 108t-30.5 63t-29 25.5t-24.5 6.5l-13 -2l-20 35q42 40 99 70t104 30q51 0 72.5 -28.5t21.5 -96.5v-6q0 -88 82 -594q6 -50 45 -141z" />
<glyph unicode="z" horiz-adv-x="966" d="M594 823l-551 -723q-18 -21 -43 -41l-25 -20v-39h693q73 0 126 24t74 60q19 30 19 64q0 6 -1 12q-3 40 -34 73q-1 -11 -20.5 -29t-51.5 -37.5t-84 -33.5t-108 -14h-322l21 17q21 17 39 40l553 731q15 22 40 42l25 20l2 39h-639q-49 0 -87.5 -23.5t-53.5 -56.5t-15.5 -65 t25.5 -53q20 -16 52 -16q8 0 16 1q0 18 37.5 56t103.5 38h277q-36 -24 -68 -66z" />
<glyph unicode="{" horiz-adv-x="681" d="M104 623q33 0 65.5 30t67.5 96t71 186.5t69 287.5q17 85 57.5 151t93 103t106.5 55t107 18q71 0 115 -47q-117 -1 -206.5 -91.5t-112.5 -227.5q-23 -139 -62 -257t-79.5 -189t-77.5 -111t-64 -43q61 -80 61 -273q0 -117 -27.5 -320.5t-27.5 -244.5q0 -172 182 -172 q16 0 54 4q-85 -80 -191 -80q-92 0 -150.5 80.5t-58.5 192.5q0 39 4 59q74 382 74 561q0 69 -11 111t-27 56.5t-40 19.5z" />
<glyph unicode="|" horiz-adv-x="163" d="M164 1548v-2068h-164v2068h164z" />
<glyph unicode="}" horiz-adv-x="681" d="M664 623q-95 0 -95 190q0 34 22.5 205t22.5 258q0 128 -64 201t-155 73q-73 0 -135 -47q94 -1 142.5 -55.5t48.5 -155.5q0 -69 -18.5 -217.5t-18.5 -197.5q0 -132 24.5 -207.5t59.5 -85.5l-14 -8q-14 -8 -37 -29.5t-54.5 -72t-64 -122t-68.5 -194.5t-65 -275 q-9 -46 -14 -67.5t-16 -61t-22 -60t-30.5 -47.5t-42.5 -40t-56.5 -23t-74.5 -10q-12 0 -50 4q53 -80 156 -80q101 0 191.5 92t115.5 240q33 186 67.5 324t64 214.5t62.5 124.5t56.5 63.5t52.5 21.5z" />
<glyph unicode="~" horiz-adv-x="1079" d="M184 535q25 18 37 25.5t39.5 17.5t52.5 8q34 -2 125.5 -34t159.5 -36q13 -1 25 -1q84 0 151 37q78 41 96 128q-76 -55 -142 -55h-9q-36 4 -130.5 34t-146.5 33q-14 1 -28 1q-78 0 -140 -33q-74 -39 -90 -125z" />
<glyph unicode="&#xa1;" horiz-adv-x="540" d="M311 1028l58 -12l-121 -987q-3 -30 -3 -53q0 -19 2 -34q5 -32 14 -44l9 -13l-10 -47l-21 -11q-21 -11 -55.5 -22.5t-62.5 -11.5q-53 0 -84.5 11.5t-42.5 37.5q-9 24 -9 51v5q1 30 15.5 79t31.5 93l40 112q24 67 39 123zM276 1255q0 46 32 78.5t77 32.5q46 0 78.5 -32.5 t32.5 -78.5q0 -44 -32.5 -76t-78.5 -32q-44 0 -76.5 32t-32.5 76z" />
<glyph unicode="&#xa2;" horiz-adv-x="958" d="M485 -223h-100q24 123 41 196h-4q-145 0 -242.5 105.5t-97.5 290.5q0 140 45 262t121 207t176 137t209 61q6 36 15 100l11 87q47 10 60 10q41 0 41 -41q0 -14 -3.5 -32.5t-11 -47t-10.5 -43.5l-6 -33q107 -9 168 -53t61 -113q0 -25 -14 -67q-25 39 -93.5 67t-150.5 31 l-129 -637l-26 -135q84 5 175.5 53.5t158.5 126.5q2 0 2 -18q0 -70 -54 -136t-136 -110t-173 -61zM293 528q-10 -45 -10 -110q0 -108 43 -184.5t131 -98.5q135 663 153 762q-124 -17 -206 -118.5t-111 -250.5z" />
<glyph unicode="&#xa3;" d="M74 551l12 133q0 4 137 4q1 97 1.5 163.5t6.5 127t21 121.5q11 47 28.5 92t47 97.5t73 96t99.5 80t134 57.5t169 21q62 0 125 -20t110 -63.5t47 -100.5q0 -67 -37.5 -102t-82.5 -35q-47 0 -80 30q2 0 5 13.5t3 29.5q0 48 -51 89.5t-135 41.5q-111 0 -192 -97t-93 -230 q-5 -51 -8 -101t-4 -85l-3 -106q-2 -69 -4 -124q132 -4 154 -4h102q48 0 85.5 1t63 5t34.5 10q-5 -31 -17.5 -54t-30 -37.5t-40 -25t-48 -14.5t-53.5 -6.5t-56.5 -1.5t-57.5 0h-142q-5 -164 -46.5 -381.5t-84.5 -279.5q238 -46 404 -46q174 0 314 31.5t196 91.5q6 -27 6 -53 q0 -219 -410 -219q-108 0 -298.5 27.5t-399.5 62.5q59 129 96 343.5t47 424.5h-90q-25 0 -57 -8z" />
<glyph unicode="&#xa4;" horiz-adv-x="1200" d="M35 731l43 131q42 -6 131 -6q102 235 301.5 375.5t441.5 140.5q120 0 204.5 -44t84.5 -91q0 -57 -57 -98q-5 40 -78.5 75t-202.5 35q-173 0 -318 -112.5t-214 -282.5h385h102q48 0 84.5 1t62.5 5t35 10q-11 -31 -28 -54t-37 -37.5t-44 -24.5t-50 -14.5t-54.5 -7 t-56.5 -1.5t-57 0h-379q-20 -90 -23 -164h267h102q49 0 87 1t64.5 5t36.5 11q-11 -31 -28 -54.5t-38 -38t-45.5 -24.5t-51 -14.5t-55.5 -7t-57.5 -1.5t-57.5 0h-222q34 -354 392 -354q54 0 146.5 28t166.5 91q-24 -119 -129 -178.5t-271 -59.5q-232 0 -357 131.5t-130 343.5 h-111q-26 0 -34 -2l43 131q28 -4 106 -4q5 64 31 162h-94q-29 0 -37 -2z" />
<glyph unicode="&#xa5;" horiz-adv-x="1030" d="M221 715q0 -2 189 -6l-107 315l-37 105l-28 79q-7 23 -19.5 49t-25 36.5t-31.5 19.5l20 35q65 28 142 28q63 0 94 -37q25 -117 85 -309.5t95 -275.5l59 80l226 301q47 64 47 122q0 29 -12 56l20 35q67 28 119 28q49 0 100 -28q-7 -37 -64 -129.5t-106 -151.5l-289 -360 h97q46 0 82 1t62 5t36 10q-9 -24 -21.5 -43t-27.5 -33t-33.5 -24.5t-38 -17t-41 -11t-43.5 -6.5t-45 -3t-45 -1h-45q-37 -110 -51 -185h14h107q53 0 95.5 1t73.5 5t41 11q-11 -31 -29.5 -54.5t-41.5 -38t-50.5 -25t-56.5 -14t-59.5 -6.5t-60 -2t-58.5 0q-34 -169 -37 -276 h-192l6 33q2 13 49 243q-98 3 -211 3q-29 0 -37 -3l25 132q0 -9 248 -9l34 185q-98 2 -211 2q-28 0 -36 -2z" />
<glyph unicode="&#xa7;" horiz-adv-x="972" d="M315 -496q-79 0 -140 19.5t-93 49.5t-47 60q-13 25 -13 47q0 5 1 9l8 37q51 -51 125 -82q71 -31 137 -31h4h18q25 106 33 211q2 39 2 87q0 84 -8 197q-13 179 -53 435q-40 258 -40 436q0 75 7 135q22 175 136.5 294.5t264.5 119.5q79 0 141 -19.5t94.5 -49t47.5 -59.5 q11 -24 11 -46q0 -5 -1 -11l-8 -36q-52 51 -125 82q-71 30 -137 30h-4h-21q-24 -107 -31 -212q-2 -36 -2 -80q0 -86 8 -205q14 -179 54 -433q40 -258 40 -435q0 -75 -7 -136q-22 -175 -136.5 -294.5t-265.5 -119.5zM420 510q22 -165 31 -255.5t13 -216.5q1 -24 1 -47 q0 -98 -15 -177q-17 -98 -55 -183q179 62 207 320q4 34 4 74q0 50 -6 109q-10 107 -47 388q-17 130 -25.5 203t-15.5 183q-4 69 -4 124q0 32 1 58q4 74 20 158t46 153q-176 -63 -204 -320q-3 -24 -3 -49q-1 -9 -1 -18q0 -18 1 -37q1 -29 3.5 -63.5t7 -75.5t10.5 -90.5 t14 -108.5z" />
<glyph unicode="&#xa8;" horiz-adv-x="786" d="M311 1313q0 -47 -30 -80t-72 -33t-72.5 33t-30.5 80q0 46 31 79t72 33t71.5 -33t30.5 -79zM688 1313q0 -47 -30 -80t-72 -33t-72.5 32.5t-30.5 80.5q0 46 30.5 79t72.5 33q41 0 71.5 -33t30.5 -79z" />
<glyph unicode="&#xa9;" horiz-adv-x="1617" d="M1505 727q0 -213 -89.5 -382t-256.5 -266t-383 -97q-291 0 -477 181t-186 464q0 158 54 295t151 235.5t237 154.5t305 56q186 0 333.5 -81.5t229.5 -228t82 -331.5zM1378 680q0 255 -157.5 419.5t-403.5 164.5q-156 0 -286.5 -75.5t-208.5 -212t-78 -304.5 q0 -123 44 -231t120.5 -185t184 -121.5t228.5 -44.5q112 0 214 44.5t177.5 121.5t120.5 188t45 236zM1079 879l-14 11q-14 12 -39 25.5t-72 25t-102 11.5q-41 0 -82 -18t-68 -45q-71 -71 -71 -197q0 -104 57.5 -179t163.5 -75q66 0 132.5 35t111.5 98l6 -22q6 -22 6 -35 q0 -82 -96.5 -142.5t-210.5 -60.5q-66 0 -123.5 20t-104 60t-73.5 106.5t-27 153.5q0 173 100 295.5t258 122.5q122 0 193 -55q58 -45 58 -106q0 -14 -3 -29z" />
<glyph unicode="&#xaa;" horiz-adv-x="858" />
<glyph unicode="&#xab;" horiz-adv-x="1302" d="M127 506l47 41l332 319q124 121 211 121q49 0 76 -31q-19 -6 -47.5 -27t-47.5 -39l-18 -18l-285 -303q-21 -22 -49 -42.5t-31 -20.5q3 0 23 -21t31 -43l170 -303l11 -17q12 -18 31.5 -39t36.5 -28q-44 -28 -88 -28h-4q-81 0 -161 118l-205 320zM582 506l47 41l332 319 q124 121 210 121q50 0 76 -31q-19 -6 -47 -27t-46 -39l-19 -18l-285 -303q-21 -22 -49 -42.5t-31 -20.5q3 0 23 -21t30 -43l170 -303l11 -17q12 -18 32 -39t37 -28q-44 -28 -88 -28h-4q-80 0 -162 118l-205 320z" />
<glyph unicode="&#xac;" horiz-adv-x="1095" />
<glyph unicode="&#xad;" horiz-adv-x="618" d="M45 436l27 131q-1 -4 38.5 -5.5t76.5 -2t104 -0.5h103q48 0 85 1t63 5t36 10q-11 -31 -28 -54t-37 -37.5t-44.5 -25t-51 -14.5t-55.5 -6q-20 -2 -40 -2h-16q-29 1 -58 0q-27 0 -90 1t-76 1q-29 0 -37 -2z" />
<glyph unicode="&#xae;" horiz-adv-x="1617" d="M842 293h-209q0 33 2 211.5t2 294.5q0 56 -9 93.5t-23.5 51t-23 17.5t-16.5 4v43q79 41 142 41q47 0 63 -23.5t16 -69.5q0 -27 -6 -57q35 60 89 109t120 49q56 0 82.5 -28t26.5 -64q0 -71 -94 -99q-9 26 -28.5 40t-39.5 14q-56 0 -92.5 -45t-51 -110.5t-14.5 -148.5 q0 -98 18.5 -190.5t45.5 -132.5zM1505 727q0 -213 -89.5 -382t-256.5 -266t-383 -97q-291 0 -477 181t-186 464q0 158 54 295t151 235.5t237 154.5t305 56q186 0 333.5 -81.5t229.5 -228t82 -331.5zM1378 680q0 255 -157.5 419.5t-403.5 164.5q-156 0 -286.5 -75.5 t-208.5 -212t-78 -304.5q0 -123 44 -231t120.5 -185t184 -121.5t228.5 -44.5q112 0 214 44.5t177.5 121.5t120.5 188t45 236z" />
<glyph unicode="&#xaf;" horiz-adv-x="686" d="M86 1225l27 131q-1 -4 38.5 -5.5t76.5 -2t104 -0.5h102q48 0 85.5 1t63.5 5t35 10q-11 -31 -27.5 -54t-37 -37.5t-45 -25t-50.5 -14.5t-54 -7q-21 -1 -41 -1h-17q-28 1 -57 0q-27 0 -90 1t-76 1q-29 0 -37 -2z" />
<glyph unicode="&#xb0;" horiz-adv-x="817" d="M739 1176q0 -143 -99 -244t-241 -101q-143 0 -243.5 101t-100.5 244q0 141 100.5 240.5t243.5 99.5q142 0 241 -99.5t99 -240.5zM623 1176q0 97 -64.5 161t-161.5 64q-93 0 -159 -64.5t-66 -160.5q0 -92 66.5 -159t158.5 -67q96 0 161 66.5t65 159.5z" />
<glyph unicode="&#xb1;" horiz-adv-x="915" />
<glyph unicode="&#xb2;" horiz-adv-x="897" d="M14 0h555q58 0 98.5 15.5t59 41t26 48.5t7.5 47q0 2 -1 6t-1 6q-22 -19 -56.5 -22t-183.5 -3h-305l27 18l72 49q45 32 102 78l117 100q60 54 117 119.5t102 131t72.5 140t27.5 143.5q0 55 -15.5 103t-48.5 90t-94 66.5t-143 24.5q-139 0 -240.5 -56.5t-101.5 -141.5 q0 -33 21.5 -50.5t54.5 -17.5q32 0 69 20q0 56 49 101t113 45q71 0 103 -60.5t32 -146.5q0 -91 -46 -193.5t-114.5 -188t-148.5 -165.5t-148.5 -135.5t-114.5 -88.5l-46 -34z" />
<glyph unicode="&#xb3;" horiz-adv-x="880" d="M-2 -170q-88 0 -88 90q32 -4 51 -4q71 0 141.5 11.5t147 43.5t134 80.5t95 129.5t37.5 184q0 50 -13 87t-31 58t-49 36.5t-54.5 21.5t-59.5 12l35 55q115 48 183.5 138t68.5 190q0 59 -32 99t-103 40q-63 0 -109 -39t-53 -105q-37 -22 -74 -22q-31 0 -51 18.5t-20 46.5 q0 84 100 143.5t231 59.5q83 0 145.5 -20t97 -54t51 -72.5t16.5 -82.5q0 -191 -308 -334q129 -20 186.5 -89t57.5 -167q0 -96 -32.5 -178.5t-88.5 -142t-128.5 -105.5t-155.5 -73.5t-165.5 -41.5t-162.5 -14z" />
<glyph unicode="&#xb4;" horiz-adv-x="692" d="M479 1483h123l-106 -140q-144 -186 -314 -186q-22 0 -45.5 13t-23.5 20q55 16 101.5 52.5t75.5 76.5l58 77q28 38 60.5 62.5t70.5 24.5z" />
<glyph unicode="&#xb6;" horiz-adv-x="1288" d="M973 1352h103q48 0 85 1t64 5t37 10q-42 -116 -175 -133q-6 -23 -14 -66q-287 -1412 -321 -1665h-101l240 1195q66 337 94 530h-90q-6 -21 -14 -60q-40 -186 -167 -821t-155 -844h-100l119 594q13 62 22 86q-74 -22 -135 -22q-110 0 -197 65t-132.5 171.5t-45.5 232.5 q0 140 57 273.5t148.5 231t212 157t242.5 59.5h223z" />
<glyph unicode="&#xb7;" horiz-adv-x="528" d="M365 502q0 -46 -32 -78.5t-77 -32.5q-46 0 -78.5 32.5t-32.5 78.5q0 44 32.5 76t78.5 32q44 0 76.5 -32t32.5 -76z" />
<glyph unicode="&#xb8;" horiz-adv-x="823" d="M365 -14l43 2q-6 -8 -10 -16.5t-6.5 -15t-4.5 -12.5t-2.5 -10t-1 -7t-0.5 -4v-1q0 -16 26.5 -27.5t57.5 -19.5t57.5 -34t26.5 -66q0 -99 -90 -177.5t-191 -78.5q-66 0 -103.5 23t-37.5 63q0 35 18 63q17 -20 55.5 -31.5t82.5 -11.5q51 0 95 28.5t44 65.5q0 18 -16 32 t-38.5 23.5t-45 20.5t-38.5 28.5t-16 41.5q0 73 95 121z" />
<glyph unicode="&#xb9;" horiz-adv-x="526" />
<glyph unicode="&#xba;" horiz-adv-x="843" />
<glyph unicode="&#xbb;" horiz-adv-x="1316" d="M1163 506l-35 41l-204 319q-76 121 -166 121q-48 0 -88 -31q17 -6 37 -27t31 -39l12 -18l170 -303q10 -21 32 -42l23 -21l-31 -21q-30 -21 -51 -43l-285 -303l-42 -37q-43 -38 -70 -47q32 -28 75 -28h4q83 0 207 118l332 320zM709 506l-13 14q-13 14 -22 27l-205 319 q-75 121 -166 121q-46 0 -88 -31q17 -6 37 -27t32 -39l11 -18l170 -303q10 -21 33 -42l22 -21l-30 -21q-31 -21 -52 -43l-284 -303l-43 -37q-43 -38 -70 -47q32 -28 76 -28h4q82 0 207 118l331 320z" />
<glyph unicode="&#xbc;" horiz-adv-x="1267" />
<glyph unicode="&#xbd;" horiz-adv-x="1267" />
<glyph unicode="&#xbe;" horiz-adv-x="2853" d="M1932 203l-21 30q65 129 220.5 347.5t311.5 403t222 224.5h121l-21 -86l-34 -157l-40 -205q-41 -204 -79 -418q109 0 150.5 4t60.5 21v-9q0 -24 -4 -44q-6 -23 -23.5 -50.5t-58.5 -43.5t-103 -17h-47q-4 -20 -18.5 -99t-20.5 -118q-14 -70 -14 -154h-197l3 8l69 363h-477 zM2579 1004q-75 -71 -230.5 -286.5t-242.5 -375.5h332l98 506q9 46 43 156zM1005 0h-145l712 1027q184 274 189 323q38 30 82 30q61 0 61 -41q0 -32 -40 -92t-56 -78q-2 -3 -186 -262l-370 -532q-188 -273 -247 -375zM-2 -170q-88 0 -88 90q32 -4 51 -4q71 0 141.5 11.5 t147 43.5t134 80.5t95 129.5t37.5 184q0 50 -13 87t-31 58t-49 36.5t-54.5 21.5t-59.5 12l35 55q115 48 183.5 138t68.5 190q0 59 -32 99t-103 40q-63 0 -109 -39t-53 -105q-37 -22 -74 -22q-31 0 -51 18.5t-20 46.5q0 84 100 143.5t231 59.5q83 0 145.5 -20t97 -54 t51 -72.5t16.5 -82.5q0 -191 -308 -334q129 -20 186.5 -89t57.5 -167q0 -96 -32.5 -178.5t-88.5 -142t-128.5 -105.5t-155.5 -73.5t-165.5 -41.5t-162.5 -14z" />
<glyph unicode="&#xbf;" horiz-adv-x="849" d="M592 1006l45 22q111 -59 111 -151q0 -21 -3 -31q-13 -67 -50 -132t-85.5 -118t-105.5 -106l-109 -104q-53 -50 -97 -101t-70.5 -110.5t-26.5 -119.5q0 -155 176 -155q62 0 116 45.5t54 124.5q0 6 -1 17t-1 17q36 43 96 43q47 0 68.5 -25t21.5 -59q0 -81 -57.5 -144 t-143 -94.5t-180.5 -31.5q-152 0 -234.5 85t-82.5 222q0 76 32.5 150t84.5 135.5t115 120.5l126 114q63 55 115 106t84.5 105.5t32.5 104.5q0 41 -31 70zM573 1255q0 46 32 78.5t77 32.5q46 0 78.5 -32.5t32.5 -78.5q0 -44 -32.5 -76t-78.5 -32q-44 0 -76.5 32t-32.5 76z " />
<glyph unicode="&#xc0;" d="M571 1737h-151l59 -99q49 -80 109.5 -119.5t159.5 -39.5q57 0 94 37q-49 16 -83 45t-51 59l-33 56q-16 27 -41 44t-63 17zM35 0h-146l678 1221q23 47 50 79t58 48.5t52 24t55 13.5t45 9q0 -67 15 -174l151 -1057q6 -79 37 -164h-231q1 10 -0.5 34.5t-1.5 35.5 q-44 314 -58 401h-456l-238 -444q-4 -8 -10 -27zM641 1153l-303 -584h391q-12 74 -46.5 318t-41.5 266z" />
<glyph unicode="&#xc1;" d="M1004 1737h151l-100 -99q-82 -81 -156.5 -120t-173.5 -39q-54 0 -78 37q55 16 100 45t73 59l56 56q26 27 58 44t70 17zM35 0h-146l678 1221q23 47 50 79t58 48.5t52 24t55 13.5t45 9q0 -67 15 -174l151 -1057q6 -79 37 -164h-231q1 10 -0.5 34.5t-1.5 35.5 q-44 314 -58 401h-456l-238 -444q-4 -8 -10 -27zM641 1153l-303 -584h391q-12 74 -46.5 318t-41.5 266z" />
<glyph unicode="&#xc2;" d="M786 1729h19q27 0 54.5 -22.5t52.5 -56.5l52 -67q26 -34 60.5 -61t69.5 -33q0 -5 -32 -16t-58 -11q-99 0 -160.5 50t-81.5 141q-41 -62 -77.5 -99.5t-98 -64.5t-140.5 -27q-26 0 -53.5 10.5t-27.5 16.5q47 7 107.5 46.5t107 82t94.5 77t74 34.5h38zM35 0h-146l678 1221 q23 47 50 79t58 48.5t52 24t55 13.5t45 9q0 -67 15 -174l151 -1057q6 -79 37 -164h-231q1 10 -0.5 34.5t-1.5 35.5q-44 314 -58 401h-456l-238 -444q-4 -8 -10 -27zM641 1153l-303 -584h391q-12 74 -46.5 318t-41.5 266z" />
<glyph unicode="&#xc3;" d="M336 1522l26 14q14 8 31 15.5t34 13.5t36.5 10t38.5 4q42 0 91.5 -19.5t114 -39t144.5 -19.5q115 0 211 45.5t137 134.5q-116 -59 -190 -59q-55 0 -164 33t-180 33q-117 0 -205.5 -39t-124.5 -127zM35 0h-146l678 1221q23 47 50 79t58 48.5t52 24t55 13.5t45 9 q0 -67 15 -174l151 -1057q6 -79 37 -164h-231q1 10 -0.5 34.5t-1.5 35.5q-44 314 -58 401h-456l-238 -444q-4 -8 -10 -27zM641 1153l-303 -584h391q-12 74 -46.5 318t-41.5 266z" />
<glyph unicode="&#xc4;" d="M637 1599q0 -47 -30 -79.5t-72 -32.5t-72.5 32.5t-30.5 79.5q0 46 30.5 79.5t72.5 33.5q41 0 71.5 -33.5t30.5 -79.5zM1116 1599q0 -47 -30 -79.5t-72 -32.5t-72.5 32.5t-30.5 79.5q0 46 30.5 79.5t72.5 33.5q41 0 71.5 -33.5t30.5 -79.5zM35 0h-146l678 1221 q23 47 50 79t58 48.5t52 24t55 13.5t45 9q0 -67 15 -174l151 -1057q6 -79 37 -164h-231q1 10 -0.5 34.5t-1.5 35.5q-44 314 -58 401h-456l-238 -444q-4 -8 -10 -27zM641 1153l-303 -584h391q-12 74 -46.5 318t-41.5 266z" />
<glyph unicode="&#xc5;" d="M35 0h-146l678 1221q23 47 50 79t58 48.5t52 24t55 13.5t45 9q0 -67 15 -174l151 -1057q6 -79 37 -164h-231q1 10 -0.5 34.5t-1.5 35.5q-44 314 -58 401h-456l-238 -444q-4 -8 -10 -27zM641 1153l-303 -584h391q-12 74 -46.5 318t-41.5 266zM854 1794q-14 4 -43 4 q-81 0 -135.5 -51t-54.5 -139q0 -77 50.5 -117.5t119.5 -40.5q80 0 136.5 53t56.5 134q0 61 -37 103.5t-93 53.5zM783 1506q-34 6 -56 36t-22 76q0 65 28 96t66 31q43 0 70.5 -29.5t27.5 -83.5q0 -66 -29 -97.5t-67 -31.5q-3 0 -9 1.5t-9 1.5z" />
<glyph unicode="&#xc6;" horiz-adv-x="1527" d="M731 1352h397l347 6q18 -29 18 -79q0 -21 -3 -45q-11 -84 -34 -104h-39q0 47 -53 78.5t-135 34.5l-170 6q0 -2 -4 -22l-41 -208l-64 -312h310q28 0 48 6.5t26 12.5l7 7l-4 -41q-14 -69 -60.5 -90.5t-139.5 -21.5h-211q-41 -195 -80 -435v-16h379q28 0 48 6.5t26 13.5l6 7 l-1 -13q0 -13 -4 -28q-5 -28 -17 -48.5t-31 -32.5t-36 -19.5t-43 -10.5t-40 -3.5t-39 -0.5h-486q22 78 25 96l72 375h-353l-282 -430q-5 -7 -12.5 -23t-8.5 -18h-160l811 1202q18 29 21 51q1 6 1 13q0 20 -13 51zM797 1143l-379 -574h305l100 521q5 22 17 80l16 81z" />
<glyph unicode="&#xc7;" horiz-adv-x="1277" d="M1077 311q2 -4 2 -18q0 -114 -110.5 -197t-270.5 -110q-16 -29 -16 -64q0 -13 17.5 -22t42 -17t49 -18.5t42 -33.5t17.5 -56q0 -99 -90 -177.5t-191 -78.5q-66 0 -103.5 23t-37.5 63q0 35 18 63q17 -20 55.5 -31.5t82.5 -11.5q51 0 95 28.5t44 65.5q0 18 -16 32 t-38.5 23.5t-45 20.5t-38.5 28.5t-16 41.5q0 67 72 110q0 2 2 2q-54 -4 -78 -4q-115 0 -203.5 39.5t-142.5 110t-81 163t-27 203.5q0 197 62.5 364t169 279.5t249 176t301.5 63.5q128 0 232.5 -50t125.5 -120q-7 -36 -58.5 -100.5t-102.5 -85.5l-29 26q2 7 2 19 q0 26 -12 56.5t-35.5 61t-68.5 50.5t-103 20q-123 0 -223 -63.5t-161 -165.5t-93.5 -223t-32.5 -244q0 -94 20 -172t61 -139t108.5 -95t156.5 -34q98 0 213.5 52t183.5 146z" />
<glyph unicode="&#xc8;" horiz-adv-x="1003" d="M510 1737h-152l60 -99q48 -80 109 -119.5t159 -39.5q59 0 94 37q-49 16 -83 45t-51 59l-33 56q-16 27 -40.5 44t-62.5 17zM291 1085q15 74 16 123v11q0 41 -7 55q-9 17 -15 39l18 35h301l346 6q19 -29 19 -80q0 -20 -3 -44q-11 -84 -34 -104h-39q0 47 -53 78.5t-135 34.5 l-170 6q-53 -204 -109 -500h315q28 0 47.5 6.5t25.5 13.5l5 7l-2 -41q-6 -33 -23.5 -56t-35.5 -34t-49 -16.5t-47 -6t-48 -0.5q-2 0 -49 1t-89 2q-20 0 -39.5 0.5t-37.5 -0.5q-54 -292 -84 -480v-12h381q28 0 48.5 6.5t27.5 13.5l6 7l-4 -41q-6 -33 -23.5 -56t-36 -34.5 t-49 -17t-47.5 -6.5t-47 -1h-487l27 139z" />
<glyph unicode="&#xc9;" horiz-adv-x="1003" d="M793 1737h151l-100 -99q-84 -81 -157 -120t-173 -39q-54 0 -78 37q55 16 100 45t74 59l54 56q27 27 59 44t70 17zM291 1085q15 74 16 123v11q0 41 -7 55q-9 17 -15 39l18 35h301l346 6q19 -29 19 -80q0 -20 -3 -44q-11 -84 -34 -104h-39q0 47 -53 78.5t-135 34.5l-170 6 q-53 -204 -109 -500h315q28 0 47.5 6.5t25.5 13.5l5 7l-2 -41q-6 -33 -23.5 -56t-35.5 -34t-49 -16.5t-47 -6t-48 -0.5q-2 0 -49 1t-89 2q-20 0 -39.5 0.5t-37.5 -0.5q-54 -292 -84 -480v-12h381q28 0 48.5 6.5t27.5 13.5l6 7l-4 -41q-6 -33 -23.5 -56t-36 -34.5t-49 -17 t-47.5 -6.5t-47 -1h-487l27 139z" />
<glyph unicode="&#xca;" horiz-adv-x="1003" d="M698 1729h19q27 0 54.5 -22.5t52.5 -56.5l52 -67q26 -34 60.5 -61t69.5 -33q0 -5 -32 -16t-59 -11q-98 0 -159.5 50t-81.5 141q-41 -62 -77.5 -99.5t-98 -64.5t-140.5 -27q-26 0 -54 10.5t-28 16.5q48 7 108.5 46.5t107 82t94 77t73.5 34.5h39zM291 1085q15 74 16 123v11 q0 41 -7 55q-9 17 -15 39l18 35h301l346 6q19 -29 19 -80q0 -20 -3 -44q-11 -84 -34 -104h-39q0 47 -53 78.5t-135 34.5l-170 6q-53 -204 -109 -500h315q28 0 47.5 6.5t25.5 13.5l5 7l-2 -41q-6 -33 -23.5 -56t-35.5 -34t-49 -16.5t-47 -6t-48 -0.5q-2 0 -49 1t-89 2 q-20 0 -39.5 0.5t-37.5 -0.5q-54 -292 -84 -480v-12h381q28 0 48.5 6.5t27.5 13.5l6 7l-4 -41q-6 -33 -23.5 -56t-36 -34.5t-49 -17t-47.5 -6.5t-47 -1h-487l27 139z" />
<glyph unicode="&#xcb;" horiz-adv-x="1003" d="M526 1599q0 -47 -30 -79.5t-72 -32.5t-72 32.5t-30 79.5q0 46 30.5 79.5t71.5 33.5t71.5 -33.5t30.5 -79.5zM1006 1599q0 -47 -30.5 -79.5t-72.5 -32.5t-72 32.5t-30 79.5q0 46 30.5 79.5t71.5 33.5q42 0 72.5 -33.5t30.5 -79.5zM291 1085q15 74 16 123v11q0 41 -7 55 q-9 17 -15 39l18 35h301l346 6q19 -29 19 -80q0 -20 -3 -44q-11 -84 -34 -104h-39q0 47 -53 78.5t-135 34.5l-170 6q-53 -204 -109 -500h315q28 0 47.5 6.5t25.5 13.5l5 7l-2 -41q-6 -33 -23.5 -56t-35.5 -34t-49 -16.5t-47 -6t-48 -0.5q-2 0 -49 1t-89 2q-20 0 -39.5 0.5 t-37.5 -0.5q-54 -292 -84 -480v-12h381q28 0 48.5 6.5t27.5 13.5l6 7l-4 -41q-6 -33 -23.5 -56t-36 -34.5t-49 -17t-47.5 -6.5t-47 -1h-487l27 139z" />
<glyph unicode="&#xcc;" horiz-adv-x="618" d="M328 1737h-152l60 -99q48 -80 109 -119.5t159 -39.5q57 0 94 37q-49 16 -83 45t-51 59l-33 56q-16 27 -40.5 44t-62.5 17zM322 0h-222q19 75 213 1090q15 78 15 127q0 35 -9 61t-16 37l21 35l48 13q48 13 97 13q62 0 109 -24q-104 -443 -175 -811q-84 -450 -84 -521 q0 -6 1.5 -12.5t1.5 -7.5z" />
<glyph unicode="&#xcd;" horiz-adv-x="618" d="M657 1737h152l-100 -99q-82 -81 -156.5 -120t-173.5 -39q-55 0 -78 37q55 16 100 45t73 59l56 56q26 27 57.5 44t69.5 17zM322 0h-222q19 75 213 1090q15 78 15 127q0 35 -9 61t-16 37l21 35l48 13q48 13 97 13q62 0 109 -24q-104 -443 -175 -811q-84 -450 -84 -521 q0 -6 1.5 -12.5t1.5 -7.5z" />
<glyph unicode="&#xce;" horiz-adv-x="618" d="M510 1729h18q27 0 55 -22.5t53 -56.5l52 -67q26 -34 60 -61t69 -33q0 -5 -31.5 -16t-58.5 -11q-98 0 -159.5 50t-82.5 141q-30 -46 -57 -77t-64 -59t-85.5 -41.5t-108.5 -13.5q-26 0 -54 10.5t-28 16.5q47 7 107.5 46.5t107 82t94.5 77t74 34.5h39zM322 0h-222 q19 75 213 1090q15 78 15 127q0 35 -9 61t-16 37l21 35l48 13q48 13 97 13q62 0 109 -24q-104 -443 -175 -811q-84 -450 -84 -521q0 -6 1.5 -12.5t1.5 -7.5z" />
<glyph unicode="&#xcf;" horiz-adv-x="618" d="M367 1599q0 -47 -30.5 -79.5t-72.5 -32.5t-72 32.5t-30 79.5q0 46 30.5 79.5t71.5 33.5q42 0 72.5 -33.5t30.5 -79.5zM743 1599q0 -47 -30 -79.5t-72 -32.5t-72 32.5t-30 79.5q0 46 30.5 79.5t71.5 33.5t71.5 -33.5t30.5 -79.5zM322 0h-222q19 75 213 1090q15 78 15 127 q0 35 -9 61t-16 37l21 35l48 13q48 13 97 13q62 0 109 -24q-104 -443 -175 -811q-84 -450 -84 -521q0 -6 1.5 -12.5t1.5 -7.5z" />
<glyph unicode="&#xd1;" horiz-adv-x="1474" d="M465 1522l27 14q13 8 30 15.5t34 13.5t36.5 10t38.5 4q42 0 91.5 -19.5t114 -39t144.5 -19.5q115 0 211 45.5t137 134.5q-116 -59 -190 -59q-55 0 -164 33t-180 33q-117 0 -205.5 -39t-124.5 -127zM393 948q-9 -47 -34 -158.5t-35 -164.5q-90 -486 -99 -625h-143l6 33 l139 731l66 330q12 70 12 117v13q-2 49 -22 91l20 35l20 8q10 4 22 7.5t23.5 6t24.5 2t25 -3.5l614 -948q21 -29 35 -80l14 -51l3 51q4 51 10 78l127 674q12 67 12 117q0 69 -23 104l21 35q38 24 104 24q61 0 86 -22q-133 -575 -207 -961q-46 -254 -63 -391h-111l-579 911 l-27 52q-27 52 -31 75q0 -38 -10 -90z" />
<glyph unicode="&#xd2;" horiz-adv-x="1368" d="M721 1737h-152l60 -99q48 -80 109 -119.5t159 -39.5q59 0 94 37q-49 16 -83 45t-51 59l-33 56q-16 27 -40.5 44t-62.5 17zM872 1372q-151 0 -291 -63.5t-247 -176t-171.5 -281.5t-64.5 -366q0 -235 111.5 -373.5t277.5 -138.5t314.5 68.5t256 186.5t170 285.5t62.5 356.5 q0 235 -115 368.5t-303 133.5zM608 96q-130 0 -208 128.5t-78 320.5q0 176 65 339t171 262t220 99q127 0 206 -124t79 -316q0 -178 -65 -343.5t-170.5 -265.5t-219.5 -100z" />
<glyph unicode="&#xd3;" horiz-adv-x="1368" d="M1065 1737h152l-101 -99q-81 -81 -155.5 -120t-174.5 -39q-54 0 -77 37q55 16 100 45t73 59l56 56q26 27 57.5 44t69.5 17zM872 1372q-151 0 -291 -63.5t-247 -176t-171.5 -281.5t-64.5 -366q0 -235 111.5 -373.5t277.5 -138.5t314.5 68.5t256 186.5t170 285.5 t62.5 356.5q0 235 -115 368.5t-303 133.5zM608 96q-130 0 -208 128.5t-78 320.5q0 176 65 339t171 262t220 99q127 0 206 -124t79 -316q0 -178 -65 -343.5t-170.5 -265.5t-219.5 -100z" />
<glyph unicode="&#xd4;" horiz-adv-x="1368" d="M909 1729h19q27 0 54.5 -22.5t52.5 -56.5l51 -67q27 -34 61 -61t70 -33q0 -5 -32 -16t-59 -11q-98 0 -159.5 50t-81.5 141q-41 -62 -77.5 -99.5t-98 -64.5t-140.5 -27q-26 0 -54 10.5t-28 16.5q48 7 108.5 46.5t107 82t94 77t73.5 34.5h39zM872 1372q-151 0 -291 -63.5 t-247 -176t-171.5 -281.5t-64.5 -366q0 -235 111.5 -373.5t277.5 -138.5t314.5 68.5t256 186.5t170 285.5t62.5 356.5q0 235 -115 368.5t-303 133.5zM608 96q-130 0 -208 128.5t-78 320.5q0 176 65 339t171 262t220 99q127 0 206 -124t79 -316q0 -178 -65 -343.5 t-170.5 -265.5t-219.5 -100z" />
<glyph unicode="&#xd5;" horiz-adv-x="1368" d="M422 1522l26 14q14 8 31 15.5t34 13.5t36.5 10t38.5 4q42 0 91.5 -19.5t114 -39t144.5 -19.5q115 0 211 45.5t137 134.5q-116 -59 -190 -59q-55 0 -164 33t-180 33q-117 0 -205.5 -39t-124.5 -127zM872 1372q-151 0 -291 -63.5t-247 -176t-171.5 -281.5t-64.5 -366 q0 -235 111.5 -373.5t277.5 -138.5t314.5 68.5t256 186.5t170 285.5t62.5 356.5q0 235 -115 368.5t-303 133.5zM608 96q-130 0 -208 128.5t-78 320.5q0 176 65 339t171 262t220 99q127 0 206 -124t79 -316q0 -178 -65 -343.5t-170.5 -265.5t-219.5 -100z" />
<glyph unicode="&#xd6;" horiz-adv-x="1368" d="M721 1599q0 -47 -30.5 -79.5t-72.5 -32.5t-72 32.5t-30 79.5q0 46 30.5 79.5t71.5 33.5q42 0 72.5 -33.5t30.5 -79.5zM1200 1599q0 -47 -30 -79.5t-72 -32.5t-72.5 32.5t-30.5 79.5q0 46 30.5 79.5t72.5 33.5q41 0 71.5 -33.5t30.5 -79.5zM872 1372q-151 0 -291 -63.5 t-247 -176t-171.5 -281.5t-64.5 -366q0 -235 111.5 -373.5t277.5 -138.5t314.5 68.5t256 186.5t170 285.5t62.5 356.5q0 235 -115 368.5t-303 133.5zM608 96q-130 0 -208 128.5t-78 320.5q0 176 65 339t171 262t220 99q127 0 206 -124t79 -316q0 -178 -65 -343.5 t-170.5 -265.5t-219.5 -100z" />
<glyph unicode="&#xd8;" horiz-adv-x="1368" d="M852 1372q-156 0 -294.5 -64.5t-239.5 -178t-159.5 -278.5t-58.5 -357q0 -172 60 -289l-133 -131l69 -72q0 1 40 42l77 79q59 -74 140.5 -111t170.5 -37q139 0 262 50.5t212.5 136.5t155 198t98 237.5t32.5 252.5q0 168 -59 289l73 65q32 29 53 55.5t21 45.5 q0 18 -14 32.5t-49 34.5q-11 -12 -57 -66t-78 -87q-60 76 -144 114.5t-178 38.5zM594 98q-78 0 -137.5 48t-94.5 135l689 688q18 -73 18 -164q0 -116 -29 -226.5t-78 -195.5t-110 -150.5t-128.5 -100t-129.5 -34.5zM1018 1063l-682 -684q-14 63 -14 151q0 115 25 225 t69.5 197.5t101 154t123 102.5t133.5 36q79 0 142 -48t102 -134z" />
<glyph unicode="&#xd9;" horiz-adv-x="1357" d="M723 1737h-152l60 -99q48 -80 109 -119.5t159 -39.5q59 0 94 37q-49 16 -83 45t-51 59l-33 56q-16 27 -40.5 44t-62.5 17zM1149 444q-40 -205 -202.5 -339t-399.5 -134q-75 0 -135 9.5t-112 32.5t-87 60t-54.5 94.5t-19.5 133.5q0 53 11 127q50 324 114 662q15 86 15 127 q0 25 -3.5 44.5t-9 30t-10.5 23.5l20 35l48 13q48 13 96 13q65 0 110 -24q-52 -224 -180 -897q-12 -61 -12 -109q0 -58 16.5 -102t42 -69t61 -40.5t66.5 -20.5t66 -5q146 0 261.5 80t143.5 194l9 35q8 34 44 212l91 464q14 71 14 120q0 64 -25 101l23 35q34 24 104 24 q61 0 86 -22q-111 -467 -192 -908z" />
<glyph unicode="&#xda;" horiz-adv-x="1357" d="M1030 1737h152l-101 -99q-81 -81 -155.5 -120t-173.5 -39q-55 0 -78 37q55 16 100 45t74 59l54 56q27 27 58.5 44t69.5 17zM1149 444q-40 -205 -202.5 -339t-399.5 -134q-75 0 -135 9.5t-112 32.5t-87 60t-54.5 94.5t-19.5 133.5q0 53 11 127q50 324 114 662 q15 86 15 127q0 25 -3.5 44.5t-9 30t-10.5 23.5l20 35l48 13q48 13 96 13q65 0 110 -24q-52 -224 -180 -897q-12 -61 -12 -109q0 -58 16.5 -102t42 -69t61 -40.5t66.5 -20.5t66 -5q146 0 261.5 80t143.5 194l9 35q8 34 44 212l91 464q14 71 14 120q0 64 -25 101l23 35 q34 24 104 24q61 0 86 -22q-111 -467 -192 -908z" />
<glyph unicode="&#xdb;" horiz-adv-x="1357" d="M893 1729h18q27 0 55 -22.5t53 -56.5l51 -67q27 -34 61 -61t69 -33q0 -5 -31.5 -16t-58.5 -11q-98 0 -159.5 50t-82.5 141q-30 -46 -57 -77t-64 -59t-85.5 -41.5t-108.5 -13.5q-26 0 -54 10.5t-28 16.5q47 7 107.5 46.5t107 82t94.5 77t74 34.5h39zM1149 444 q-40 -205 -202.5 -339t-399.5 -134q-75 0 -135 9.5t-112 32.5t-87 60t-54.5 94.5t-19.5 133.5q0 53 11 127q50 324 114 662q15 86 15 127q0 25 -3.5 44.5t-9 30t-10.5 23.5l20 35l48 13q48 13 96 13q65 0 110 -24q-52 -224 -180 -897q-12 -61 -12 -109q0 -58 16.5 -102 t42 -69t61 -40.5t66.5 -20.5t66 -5q146 0 261.5 80t143.5 194l9 35q8 34 44 212l91 464q14 71 14 120q0 64 -25 101l23 35q34 24 104 24q61 0 86 -22q-111 -467 -192 -908z" />
<glyph unicode="&#xdc;" horiz-adv-x="1357" d="M700 1599q0 -47 -30 -79.5t-72 -32.5t-72 32.5t-30 79.5q0 46 30.5 79.5t71.5 33.5t71.5 -33.5t30.5 -79.5zM1180 1599q0 -47 -30.5 -79.5t-72.5 -32.5t-72 32.5t-30 79.5q0 46 30.5 79.5t71.5 33.5q42 0 72.5 -33.5t30.5 -79.5zM1149 444q-40 -205 -202.5 -339 t-399.5 -134q-75 0 -135 9.5t-112 32.5t-87 60t-54.5 94.5t-19.5 133.5q0 53 11 127q50 324 114 662q15 86 15 127q0 25 -3.5 44.5t-9 30t-10.5 23.5l20 35l48 13q48 13 96 13q65 0 110 -24q-52 -224 -180 -897q-12 -61 -12 -109q0 -58 16.5 -102t42 -69t61 -40.5 t66.5 -20.5t66 -5q146 0 261.5 80t143.5 194l9 35q8 34 44 212l91 464q14 71 14 120q0 64 -25 101l23 35q34 24 104 24q61 0 86 -22q-111 -467 -192 -908z" />
<glyph unicode="&#xdd;" horiz-adv-x="890" d="M937 1824h123l-106 -140q-144 -186 -314 -186q-22 0 -45.5 13t-23.5 20q55 16 101.5 52.5t75.5 76.5l58 77q28 38 60.5 62.5t70.5 24.5zM451 0h-220l7 33q66 333 69 350l43 233q-14 18 -31 64l-116 344q-16 42 -32 90l-24 72q-8 23 -18.5 48.5t-19 37.5t-20 23t-28.5 18 l21 35q65 28 141 28q64 0 94 -37q25 -116 85.5 -309t95.5 -276l59 80l225 301q47 64 47 122q0 29 -12 56l21 35q67 28 118 28q50 0 101 -28q-7 -36 -64 -129t-106 -152l-324 -405q-39 -195 -59 -310q-47 -241 -53 -352z" />
<glyph unicode="&#xdf;" horiz-adv-x="1171" d="M459 1167q31 118 109 189t182 71q170 0 170 -127q0 -28 -5 -43q-12 -60 -43 -120t-68 -105l-79 -96l-75 -93q-33 -43 -55 -96t-22 -106q0 -46 21 -86.5t52.5 -68.5t67.5 -57l68 -53q32 -23 53 -53.5t21 -62.5q0 -73 -61.5 -123.5t-145.5 -50.5q-132 0 -192 42.5t-60 92.5 q-37 -47 -37 -96q0 -70 77 -111t179 -41q109 0 205.5 45t159.5 134.5t63 205.5q0 54 -22.5 100.5t-55.5 77.5t-72.5 61.5t-72.5 53t-55.5 50.5t-22.5 55q0 39 37 92.5t90 109.5l106 118q54 62 91 136t37 144q0 92 -79 140t-198 48q-103 0 -189.5 -28t-143.5 -70t-101 -100.5 t-67.5 -111t-38.5 -108.5q-32 -114 -129 -122l-21 -62q68 -31 68 -135q0 -47 -10 -94l-125 -662l-9 -51h199q0 63 4 86l34 218q35 217 84 487.5t77 375.5z" />
<glyph unicode="&#xe0;" horiz-adv-x="1038" d="M827 348q-14 -110 -14 -153q0 -97 78 -97q17 0 33 4l16 4l14 -36l-32 -24q-32 -24 -86 -48.5t-97 -24.5q-44 0 -71.5 21.5t-36.5 53.5q-9 29 -9 67q0 42 8 77q7 33 17 62q-65 -120 -164.5 -200.5t-187.5 -80.5q-87 0 -150 85t-63 241q0 195 74 366t204 274t283 103 q41 0 155.5 -19t157.5 -22l-51 -256q-16 -86 -78 -397zM752 907l-58 13q-57 12 -102 12q-82 0 -156.5 -84.5t-120 -226.5t-45.5 -299q0 -103 37 -152t92 -49q92 0 244 192q97 414 109 594zM551 1483h-119l54 -140q72 -186 235 -186q23 0 51.5 13.5t30.5 19.5 q-49 16 -80.5 52.5t-46.5 76.5l-28 77q-13 38 -36 62.5t-61 24.5z" />
<glyph unicode="&#xe1;" horiz-adv-x="1038" d="M827 348q-14 -110 -14 -153q0 -97 78 -97q17 0 33 4l16 4l14 -36l-32 -24q-32 -24 -86 -48.5t-97 -24.5q-44 0 -71.5 21.5t-36.5 53.5q-9 29 -9 67q0 42 8 77q7 33 17 62q-65 -120 -164.5 -200.5t-187.5 -80.5q-87 0 -150 85t-63 241q0 195 74 366t204 274t283 103 q41 0 155.5 -19t157.5 -22l-51 -256q-16 -86 -78 -397zM752 907l-58 13q-57 12 -102 12q-82 0 -156.5 -84.5t-120 -226.5t-45.5 -299q0 -103 37 -152t92 -49q92 0 244 192q97 414 109 594zM917 1483h123l-106 -140q-144 -186 -314 -186q-22 0 -45.5 13t-23.5 20 q55 16 101.5 52.5t75.5 76.5l58 77q28 38 60.5 62.5t70.5 24.5z" />
<glyph unicode="&#xe2;" horiz-adv-x="1038" d="M827 348q-14 -110 -14 -153q0 -97 78 -97q17 0 33 4l16 4l14 -36l-32 -24q-32 -24 -86 -48.5t-97 -24.5q-44 0 -71.5 21.5t-36.5 53.5q-9 29 -9 67q0 42 8 77q7 33 17 62q-65 -120 -164.5 -200.5t-187.5 -80.5q-87 0 -150 85t-63 241q0 195 74 366t204 274t283 103 q41 0 155.5 -19t157.5 -22l-51 -256q-16 -86 -78 -397zM752 907l-58 13q-57 12 -102 12q-82 0 -156.5 -84.5t-120 -226.5t-45.5 -299q0 -103 37 -152t92 -49q92 0 244 192q97 414 109 594zM725 1483h16q24 0 47 -27.5t44 -67.5l40 -82q21 -42 49.5 -75.5t59.5 -40.5 q-3 -6 -31.5 -19.5t-50.5 -13.5q-90 0 -142.5 65.5t-58.5 168.5q-12 -29 -20.5 -46.5t-35.5 -57.5t-55.5 -64.5t-76.5 -45t-103 -20.5q-22 0 -46 13t-24 20q42 9 98 57t100 100t88.5 94t68.5 42h33z" />
<glyph unicode="&#xe3;" horiz-adv-x="1038" d="M827 348q-14 -110 -14 -153q0 -97 78 -97q17 0 33 4l16 4l14 -36l-32 -24q-32 -24 -86 -48.5t-97 -24.5q-44 0 -71.5 21.5t-36.5 53.5q-9 29 -9 67q0 42 8 77q7 33 17 62q-65 -120 -164.5 -200.5t-187.5 -80.5q-87 0 -150 85t-63 241q0 195 74 366t204 274t283 103 q41 0 155.5 -19t157.5 -22l-51 -256q-16 -86 -78 -397zM752 907l-58 13q-57 12 -102 12q-82 0 -156.5 -84.5t-120 -226.5t-45.5 -299q0 -103 37 -152t92 -49q92 0 244 192q97 414 109 594zM316 1241q80 51 129 51q36 0 131.5 -34.5t175.5 -34.5q92 0 169 41t110 122 q-98 -55 -154 -55q-41 0 -141.5 35t-157.5 35q-86 0 -159 -40t-103 -120z" />
<glyph unicode="&#xe4;" horiz-adv-x="1038" d="M827 348q-14 -110 -14 -153q0 -97 78 -97q17 0 33 4l16 4l14 -36l-32 -24q-32 -24 -86 -48.5t-97 -24.5q-44 0 -71.5 21.5t-36.5 53.5q-9 29 -9 67q0 42 8 77q7 33 17 62q-65 -120 -164.5 -200.5t-187.5 -80.5q-87 0 -150 85t-63 241q0 195 74 366t204 274t283 103 q41 0 155.5 -19t157.5 -22l-51 -256q-16 -86 -78 -397zM752 907l-58 13q-57 12 -102 12q-82 0 -156.5 -84.5t-120 -226.5t-45.5 -299q0 -103 37 -152t92 -49q92 0 244 192q97 414 109 594zM587 1313q0 -47 -30 -80t-72 -33t-72.5 33t-30.5 80q0 46 31 79t72 33t71.5 -33 t30.5 -79zM964 1313q0 -47 -30 -80t-72 -33t-72.5 32.5t-30.5 80.5q0 46 30.5 79t72.5 33q41 0 71.5 -33t30.5 -79z" />
<glyph unicode="&#xe5;" horiz-adv-x="1038" d="M827 348q-14 -110 -14 -153q0 -97 78 -97q17 0 33 4l16 4l14 -36l-32 -24q-32 -24 -86 -48.5t-97 -24.5q-44 0 -71.5 21.5t-36.5 53.5q-9 29 -9 67q0 42 8 77q7 33 17 62q-65 -120 -164.5 -200.5t-187.5 -80.5q-87 0 -150 85t-63 241q0 195 74 366t204 274t283 103 q41 0 155.5 -19t157.5 -22l-51 -256q-16 -86 -78 -397zM752 907l-58 13q-57 12 -102 12q-82 0 -156.5 -84.5t-120 -226.5t-45.5 -299q0 -103 37 -152t92 -49q92 0 244 192q97 414 109 594zM747 1505q-14 4 -43 4q-81 0 -135.5 -51t-54.5 -139q0 -77 50.5 -117.5t119.5 -40.5 q80 0 136.5 53t56.5 134q0 61 -37 103.5t-93 53.5zM676 1217q-34 6 -56 36t-22 76q0 65 28 96t66 31q43 0 70.5 -29.5t27.5 -83.5q0 -66 -29 -97.5t-67 -31.5q-3 0 -9 1.5t-9 1.5z" />
<glyph unicode="&#xe6;" horiz-adv-x="1521" d="M82 299q0 195 74 366t204 274t283 103q29 0 138 -17t165 -17q39 0 112.5 15t129.5 15q133 0 200.5 -57t67.5 -156q0 -106 -80 -188t-205.5 -123t-271.5 -41h-45v-33q0 -56 11.5 -108t36 -99t69.5 -75.5t106 -28.5q85 0 175.5 48t160.5 132q0 -88 -60.5 -166t-158.5 -124 t-205 -46q-117 0 -202 77t-111 214q-71 -116 -181.5 -203.5t-199.5 -87.5q-87 0 -150 85t-63 241zM399 121q50 0 126.5 69.5t142.5 149.5v29q0 158 60.5 297.5t160.5 236.5h-4q-42 0 -128.5 16.5t-150.5 16.5q-82 0 -160 -85.5t-127 -229t-49 -299.5q0 -103 37 -152t92 -49z M1159 924q-54 0 -105 -36t-87.5 -93t-62.5 -121.5t-36 -126.5q50 4 89.5 10t88 17.5t84.5 31t67.5 47t48 69t16.5 93.5q0 45 -22.5 77t-80.5 32z" />
<glyph unicode="&#xe7;" horiz-adv-x="944" d="M274 420q0 -126 59 -208.5t177 -82.5q84 0 169 47.5t157 132.5v-8q0 -111 -101 -203q-105 -95 -250 -118q-6 -10 -10 -20.5t-5 -16.5l-2 -12q-1 -6 -1 -7v-2q0 -16 26.5 -27.5t57.5 -19.5t57.5 -34t26.5 -66q0 -99 -90 -177.5t-191 -78.5q-66 0 -103.5 23t-37.5 63 q0 35 18 63q17 -20 55.5 -31.5t82.5 -11.5q51 0 95 28.5t44 65.5q0 18 -16 32t-38.5 23.5t-45 20.5t-38.5 28.5t-16 41.5q0 65 72 108h-14q-140 0 -235 109t-95 291q0 163 69 316t193 251t268 98q78 0 144.5 -16.5t111.5 -54.5t45 -90q0 -66 -59 -103q-27 -17 -56 -17 q-31 0 -63 21q0 67 -31.5 106.5t-115.5 39.5q-86 0 -160 -78.5t-114 -194t-40 -231.5z" />
<glyph unicode="&#xe8;" horiz-adv-x="940" d="M406 -27q-142 0 -234 109q-88 107 -88 285v12q3 134 49.5 258t119.5 210.5t165.5 138.5t185.5 52q134 0 202 -58q66 -57 66 -153v-6q-2 -106 -82.5 -186.5t-205 -121t-269.5 -40.5h-41q-4 -32 -4 -53v-6q0 -68 22 -130q22 -64 75 -109.5t127 -45.5q84 0 174.5 48 t160.5 132v-11q0 -81 -58 -155q-62 -79 -161.5 -124.5t-203.5 -45.5zM575 924q-54 0 -105 -36t-87.5 -93t-62 -121.5t-35.5 -126.5q61 5 108 12.5t103 26t93 46t62.5 74.5t26.5 109v7q0 39 -22 69q-24 33 -81 33zM524 1483h-119l54 -140q72 -186 235 -186q23 0 51.5 13.5 t30.5 19.5q-49 16 -80.5 52.5t-46.5 76.5l-28 77q-13 38 -36 62.5t-61 24.5z" />
<glyph unicode="&#xe9;" horiz-adv-x="940" d="M891 1483h123l-107 -140q-144 -186 -313 -186q-22 0 -46 13t-24 20q56 16 102 52.5t76 76.5l58 77q28 38 60.5 62.5t70.5 24.5zM406 -27q-142 0 -234 109q-88 107 -88 285v12q3 134 49.5 258t119.5 210.5t165.5 138.5t185.5 52q134 0 202 -58q66 -57 66 -153v-6 q-2 -106 -82.5 -186.5t-205 -121t-269.5 -40.5h-41q-4 -32 -4 -53v-6q0 -68 22 -130q22 -64 75 -109.5t127 -45.5q84 0 174.5 48t160.5 132v-11q0 -81 -58 -155q-62 -79 -161.5 -124.5t-203.5 -45.5zM575 924q-54 0 -105 -36t-87.5 -93t-62 -121.5t-35.5 -126.5 q61 5 108 12.5t103 26t93 46t62.5 74.5t26.5 109v7q0 39 -22 69q-24 33 -81 33z" />
<glyph unicode="&#xea;" horiz-adv-x="940" d="M406 -27q-142 0 -234 109q-88 107 -88 285v12q3 134 49.5 258t119.5 210.5t165.5 138.5t185.5 52q134 0 202 -58q66 -57 66 -153v-6q-2 -106 -82.5 -186.5t-205 -121t-269.5 -40.5h-41q-4 -32 -4 -53v-6q0 -68 22 -130q22 -64 75 -109.5t127 -45.5q84 0 174.5 48 t160.5 132v-11q0 -81 -58 -155q-62 -79 -161.5 -124.5t-203.5 -45.5zM575 924q-54 0 -105 -36t-87.5 -93t-62 -121.5t-35.5 -126.5q61 5 108 12.5t103 26t93 46t62.5 74.5t26.5 109v7q0 39 -22 69q-24 33 -81 33zM701 1483h16q24 0 47 -27.5t44 -67.5l40 -82 q21 -42 49.5 -75.5t59.5 -40.5q-3 -6 -31.5 -19.5t-50.5 -13.5q-90 0 -142.5 65.5t-58.5 168.5q-12 -29 -20.5 -46.5t-35.5 -57.5t-55.5 -64.5t-76.5 -45t-103 -20.5q-22 0 -46 13t-24 20q42 9 98 57t100 100t88.5 94t68.5 42h33z" />
<glyph unicode="&#xeb;" horiz-adv-x="940" d="M406 -27q-142 0 -234 109q-88 107 -88 285v12q3 134 49.5 258t119.5 210.5t165.5 138.5t185.5 52q134 0 202 -58q66 -57 66 -153v-6q-2 -106 -82.5 -186.5t-205 -121t-269.5 -40.5h-41q-4 -32 -4 -53v-6q0 -68 22 -130q22 -64 75 -109.5t127 -45.5q84 0 174.5 48 t160.5 132v-11q0 -81 -58 -155q-62 -79 -161.5 -124.5t-203.5 -45.5zM575 924q-54 0 -105 -36t-87.5 -93t-62 -121.5t-35.5 -126.5q61 5 108 12.5t103 26t93 46t62.5 74.5t26.5 109v7q0 39 -22 69q-24 33 -81 33zM555 1313q0 -47 -30 -80t-72 -33t-72.5 33t-30.5 80 q0 46 31 79t72 33t71.5 -33t30.5 -79zM932 1313q0 -47 -30 -80t-72 -33t-72.5 32.5t-30.5 80.5q0 46 30.5 79t72.5 33q41 0 71.5 -33t30.5 -79z" />
<glyph unicode="&#xec;" horiz-adv-x="542" d="M92 0l2 8q150 785 150 817q1 37 -15 55.5t-41 18.5q-10 0 -16 -2l-18 33q35 41 97 72.5t120 31.5q39 0 58 -27q17 -24 17 -61v-8q0 -19 -9.5 -63t-21.5 -92.5t-14 -57.5q-9 -47 -45 -267l-51 -304q-12 -64 -12 -117q0 -25 -2 -37h-199zM219 1483h-119l54 -140 q72 -186 235 -186q23 0 51.5 13.5t30.5 19.5q-49 16 -80.5 52.5t-46.5 76.5l-28 77q-13 38 -36 62.5t-61 24.5z" />
<glyph unicode="&#xed;" horiz-adv-x="542" d="M592 1483h123l-107 -140q-144 -186 -313 -186q-22 0 -46 13t-24 20q56 16 102 52.5t76 76.5l58 77q28 38 60.5 62.5t70.5 24.5zM92 0l2 8q150 785 150 817q1 37 -15 55.5t-41 18.5q-10 0 -16 -2l-18 33q35 41 97 72.5t120 31.5q39 0 58 -27q17 -24 17 -61v-8 q0 -19 -9.5 -63t-21.5 -92.5t-14 -57.5q-9 -47 -45 -267l-51 -304q-12 -64 -12 -117q0 -25 -2 -37h-199z" />
<glyph unicode="&#xee;" horiz-adv-x="542" d="M92 0l2 8q150 785 150 817q1 37 -15 55.5t-41 18.5q-10 0 -16 -2l-18 33q35 41 97 72.5t120 31.5q39 0 58 -27q17 -24 17 -61v-8q0 -19 -9.5 -63t-21.5 -92.5t-14 -57.5q-9 -47 -45 -267l-51 -304q-12 -64 -12 -117q0 -25 -2 -37h-199zM414 1483h16q24 0 47 -27.5 t44 -67.5l40 -82q21 -42 49.5 -75.5t59.5 -40.5q-3 -6 -31.5 -19.5t-50.5 -13.5q-90 0 -142.5 65.5t-58.5 168.5q-12 -29 -20.5 -46.5t-35.5 -57.5t-55.5 -64.5t-76.5 -45t-103 -20.5q-22 0 -46 13t-24 20q42 9 98 57t100 100t88.5 94t68.5 42h33z" />
<glyph unicode="&#xef;" horiz-adv-x="542" d="M92 0l2 8q150 785 150 817q1 37 -15 55.5t-41 18.5q-10 0 -16 -2l-18 33q35 41 97 72.5t120 31.5q39 0 58 -27q17 -24 17 -61v-8q0 -19 -9.5 -63t-21.5 -92.5t-14 -57.5q-9 -47 -45 -267l-51 -304q-12 -64 -12 -117q0 -25 -2 -37h-199zM284 1313q0 -47 -30 -80t-72 -33 t-72.5 33t-30.5 80q0 46 31 79t72 33t71.5 -33t30.5 -79zM661 1313q0 -47 -30 -80t-72 -33t-72.5 32.5t-30.5 80.5q0 46 30.5 79t72.5 33q41 0 71.5 -33t30.5 -79z" />
<glyph unicode="&#xf1;" horiz-adv-x="1107" d="M403 770q30 43 74 87t100 87t123 70.5t129 27.5q76 0 129 -58q47 -52 47 -139q0 -12 -1 -24q-3 -36 -36.5 -204.5t-64.5 -349.5t-31 -267h-194q0 12 14 98q91 467 107 598q4 34 4 62q0 49 -12 78q-19 45 -78 45q-84 0 -176 -60.5t-150 -138.5q-5 -32 -39 -220l-55 -308 q-9 -64 -12 -117v-37h-199v8l147 770q4 17 4 33q0 25 -9 49q-14 39 -46 39q-10 0 -16 -2l-19 33q33 40 96 72t121 32q76 0 76 -96q0 -63 -33 -168zM363 1241q80 51 129 51q36 0 131.5 -34.5t175.5 -34.5q92 0 169 41t110 122q-98 -55 -154 -55q-41 0 -141.5 35t-157.5 35 q-86 0 -159 -40t-103 -120z" />
<glyph unicode="&#xf2;" horiz-adv-x="1030" d="M641 1038q-112 0 -213.5 -50.5t-176.5 -138.5t-120 -213t-47 -267v-15q0 -45 5 -86q6 -48 25.5 -104t51.5 -96.5t89.5 -67.5t133.5 -27q117 0 221 56.5t176.5 150t115.5 215.5t44 252v13q0 175 -82 274q-84 104 -223 104zM555 934q94 0 145 -89q48 -84 48 -223v-16 q-2 -224 -90.5 -378t-200.5 -154q-88 0 -134 90q-42 84 -42 216v23q1 44 8 102.5t26.5 136t48 141t78.5 107.5t113 44zM528 1483h-119l54 -140q72 -186 235 -186q23 0 51.5 13.5t30.5 19.5q-49 16 -80.5 52.5t-46.5 76.5l-28 77q-13 38 -36 62.5t-61 24.5z" />
<glyph unicode="&#xf3;" horiz-adv-x="1030" d="M641 1038q-112 0 -213.5 -50.5t-176.5 -138.5t-120 -213t-47 -267v-15q0 -45 5 -86q6 -48 25.5 -104t51.5 -96.5t89.5 -67.5t133.5 -27q117 0 221 56.5t176.5 150t115.5 215.5t44 252v13q0 175 -82 274q-84 104 -223 104zM555 934q94 0 145 -89q48 -84 48 -223v-16 q-2 -224 -90.5 -378t-200.5 -154q-88 0 -134 90q-42 84 -42 216v23q1 44 8 102.5t26.5 136t48 141t78.5 107.5t113 44zM889 1483h123l-106 -140q-144 -186 -314 -186q-22 0 -45.5 13t-23.5 20q55 16 101.5 52.5t75.5 76.5l58 77q28 38 60.5 62.5t70.5 24.5z" />
<glyph unicode="&#xf4;" horiz-adv-x="1030" d="M641 1038q-112 0 -213.5 -50.5t-176.5 -138.5t-120 -213t-47 -267v-15q0 -45 5 -86q6 -48 25.5 -104t51.5 -96.5t89.5 -67.5t133.5 -27q117 0 221 56.5t176.5 150t115.5 215.5t44 252v13q0 175 -82 274q-84 104 -223 104zM555 934q94 0 145 -89q48 -84 48 -223v-16 q-2 -224 -90.5 -378t-200.5 -154q-88 0 -134 90q-42 84 -42 216v23q1 44 8 102.5t26.5 136t48 141t78.5 107.5t113 44zM730 1483h16q24 0 47 -27.5t44 -67.5l40 -82q21 -42 49.5 -75.5t59.5 -40.5q-3 -6 -31.5 -19.5t-50.5 -13.5q-90 0 -142.5 65.5t-58.5 168.5 q-12 -29 -20.5 -46.5t-35.5 -57.5t-55.5 -64.5t-76.5 -45t-103 -20.5q-22 0 -46 13t-24 20q42 9 98 57t100 100t88.5 94t68.5 42h33z" />
<glyph unicode="&#xf5;" horiz-adv-x="1030" d="M641 1038q-112 0 -213.5 -50.5t-176.5 -138.5t-120 -213t-47 -267v-15q0 -45 5 -86q6 -48 25.5 -104t51.5 -96.5t89.5 -67.5t133.5 -27q117 0 221 56.5t176.5 150t115.5 215.5t44 252v13q0 175 -82 274q-84 104 -223 104zM555 934q94 0 145 -89q48 -84 48 -223v-16 q-2 -224 -90.5 -378t-200.5 -154q-88 0 -134 90q-42 84 -42 216v23q1 44 8 102.5t26.5 136t48 141t78.5 107.5t113 44zM307 1241q80 51 129 51q36 0 131.5 -34.5t175.5 -34.5q92 0 169 41t110 122q-98 -55 -154 -55q-41 0 -141.5 35t-157.5 35q-86 0 -159 -40t-103 -120z " />
<glyph unicode="&#xf6;" horiz-adv-x="1030" d="M641 1038q-112 0 -213.5 -50.5t-176.5 -138.5t-120 -213t-47 -267v-15q0 -45 5 -86q6 -48 25.5 -104t51.5 -96.5t89.5 -67.5t133.5 -27q117 0 221 56.5t176.5 150t115.5 215.5t44 252v13q0 175 -82 274q-84 104 -223 104zM555 934q94 0 145 -89q48 -84 48 -223v-16 q-2 -224 -90.5 -378t-200.5 -154q-88 0 -134 90q-42 84 -42 216v23q1 44 8 102.5t26.5 136t48 141t78.5 107.5t113 44zM565 1313q0 -47 -30 -80t-72 -33t-72.5 33t-30.5 80q0 46 31 79t72 33t71.5 -33t30.5 -79zM942 1313q0 -47 -30 -80t-72 -33t-72.5 32.5t-30.5 80.5 q0 46 30.5 79t72.5 33q41 0 71.5 -33t30.5 -79z" />
<glyph unicode="&#xf7;" horiz-adv-x="1001" d="M596 229q0 -49 -33.5 -82.5t-81.5 -33.5q-49 0 -82.5 33.5t-33.5 82.5q0 48 33.5 81.5t82.5 33.5q48 0 81.5 -33.5t33.5 -81.5zM596 819q0 -49 -33.5 -83t-81.5 -34q-49 0 -82.5 34t-33.5 83q0 48 33.5 81.5t82.5 33.5q48 0 81.5 -33.5t33.5 -81.5zM180 461v131 q0 -8 344 -8h102q49 0 86 1t62.5 5t34.5 10q-5 -31 -17.5 -54t-30 -37.5t-40 -25t-48 -14.5t-53.5 -7q-20 -1 -40 -1h-16q-29 1 -58 0q-27 0 -151.5 1t-137.5 1q-29 0 -37 -2z" />
<glyph unicode="&#xf8;" horiz-adv-x="1030" d="M1016 977q0 17 -14.5 32t-49.5 35q-15 -16 -46 -52l-46 -54q-80 100 -219 100q-112 0 -213.5 -50.5t-176.5 -138.5t-120 -213t-47 -267v-25q0 -92 25 -168q-39 -42 -109 -106l63 -68l87 88q79 -117 239 -117q117 0 221 56.5t176.5 150t115.5 215.5t44 252q0 128 -35 205 l34 30q16 14 29 27t22.5 24t14.5 22.5t5 21.5zM457 74q-62 0 -103 44.5t-59 125.5l448 450q5 -26 5 -88q-2 -224 -90.5 -378t-200.5 -154zM555 934q117 0 166 -139l-440 -449v57q1 44 8 102.5t26.5 136t48 141t78.5 107.5t113 44z" />
<glyph unicode="&#xf9;" horiz-adv-x="1128" d="M750 897l-19 33q33 41 95.5 72.5t121.5 31.5q76 0 76 -96q0 -30 -10 -84.5t-19 -83.5l-100 -539q-4 -32 -4 -45q0 -47 23.5 -67.5t56.5 -20.5q25 0 45 8l14 -36q-43 -38 -112 -67.5t-115 -29.5q-113 0 -113 121q0 65 29 146q-30 -43 -74 -87.5t-100 -87.5t-123 -70.5 t-129 -27.5q-71 0 -122.5 53t-51.5 146q0 40 46.5 275.5t59.5 336.5q2 8 2 27q0 40 -13 67t-40 27q-10 0 -16 -2l-19 33q33 41 95.5 72.5t121.5 31.5q76 0 76 -96q0 -54 -26 -168q-14 -68 -44 -193.5t-43.5 -197.5t-13.5 -123q0 -63 24.5 -95t80.5 -32q83 0 176 60.5 t149 138.5q3 19 18 100l32 177l32 181v19q0 94 -51 94q-10 0 -16 -2zM508 1483h-119l54 -140q72 -186 235 -186q23 0 51.5 13.5t30.5 19.5q-49 16 -80.5 52.5t-46.5 76.5l-28 77q-13 38 -36 62.5t-61 24.5z" />
<glyph unicode="&#xfa;" horiz-adv-x="1128" d="M750 897l-19 33q33 41 95.5 72.5t121.5 31.5q76 0 76 -96q0 -30 -10 -84.5t-19 -83.5l-100 -539q-4 -32 -4 -45q0 -47 23.5 -67.5t56.5 -20.5q25 0 45 8l14 -36q-43 -38 -112 -67.5t-115 -29.5q-113 0 -113 121q0 65 29 146q-30 -43 -74 -87.5t-100 -87.5t-123 -70.5 t-129 -27.5q-71 0 -122.5 53t-51.5 146q0 40 46.5 275.5t59.5 336.5q2 8 2 27q0 40 -13 67t-40 27q-10 0 -16 -2l-19 33q33 41 95.5 72.5t121.5 31.5q76 0 76 -96q0 -54 -26 -168q-14 -68 -44 -193.5t-43.5 -197.5t-13.5 -123q0 -63 24.5 -95t80.5 -32q83 0 176 60.5 t149 138.5q3 19 18 100l32 177l32 181v19q0 94 -51 94q-10 0 -16 -2zM909 1483h123l-106 -140q-144 -186 -314 -186q-22 0 -45.5 13t-23.5 20q55 16 101.5 52.5t75.5 76.5l58 77q28 38 60.5 62.5t70.5 24.5z" />
<glyph unicode="&#xfb;" horiz-adv-x="1128" d="M750 897l-19 33q33 41 95.5 72.5t121.5 31.5q76 0 76 -96q0 -30 -10 -84.5t-19 -83.5l-100 -539q-4 -32 -4 -45q0 -47 23.5 -67.5t56.5 -20.5q25 0 45 8l14 -36q-43 -38 -112 -67.5t-115 -29.5q-113 0 -113 121q0 65 29 146q-30 -43 -74 -87.5t-100 -87.5t-123 -70.5 t-129 -27.5q-71 0 -122.5 53t-51.5 146q0 40 46.5 275.5t59.5 336.5q2 8 2 27q0 40 -13 67t-40 27q-10 0 -16 -2l-19 33q33 41 95.5 72.5t121.5 31.5q76 0 76 -96q0 -54 -26 -168q-14 -68 -44 -193.5t-43.5 -197.5t-13.5 -123q0 -63 24.5 -95t80.5 -32q83 0 176 60.5 t149 138.5q3 19 18 100l32 177l32 181v19q0 94 -51 94q-10 0 -16 -2zM713 1483h16q24 0 47 -27.5t44 -67.5l40 -82q21 -42 49.5 -75.5t59.5 -40.5q-3 -6 -31.5 -19.5t-50.5 -13.5q-90 0 -142.5 65.5t-58.5 168.5q-12 -29 -20.5 -46.5t-35.5 -57.5t-55.5 -64.5t-76.5 -45 t-103 -20.5q-22 0 -46 13t-24 20q42 9 98 57t100 100t88.5 94t68.5 42h33z" />
<glyph unicode="&#xfc;" horiz-adv-x="1128" d="M750 897l-19 33q33 41 95.5 72.5t121.5 31.5q76 0 76 -96q0 -30 -10 -84.5t-19 -83.5l-100 -539q-4 -32 -4 -45q0 -47 23.5 -67.5t56.5 -20.5q25 0 45 8l14 -36q-43 -38 -112 -67.5t-115 -29.5q-113 0 -113 121q0 65 29 146q-30 -43 -74 -87.5t-100 -87.5t-123 -70.5 t-129 -27.5q-71 0 -122.5 53t-51.5 146q0 40 46.5 275.5t59.5 336.5q2 8 2 27q0 40 -13 67t-40 27q-10 0 -16 -2l-19 33q33 41 95.5 72.5t121.5 31.5q76 0 76 -96q0 -54 -26 -168q-14 -68 -44 -193.5t-43.5 -197.5t-13.5 -123q0 -63 24.5 -95t80.5 -32q83 0 176 60.5 t149 138.5q3 19 18 100l32 177l32 181v19q0 94 -51 94q-10 0 -16 -2zM587 1313q0 -47 -30 -80t-72 -33t-72.5 33t-30.5 80q0 46 31 79t72 33t71.5 -33t30.5 -79zM964 1313q0 -47 -30 -80t-72 -33t-72.5 32.5t-30.5 80.5q0 46 30.5 79t72.5 33q41 0 71.5 -33t30.5 -79z" />
<glyph unicode="&#xfd;" horiz-adv-x="921" d="M592 1486h123l-106 -140q-144 -186 -314 -186q-22 0 -45.5 13t-23.5 20q55 16 101.5 52.5t75.5 76.5l58 77q28 38 60.5 62.5t70.5 24.5zM465 168q121 193 216 385.5t95 288.5q0 49 -22.5 89t-67.5 50q27 45 102 45q123 0 123 -129q0 -90 -51.5 -215t-109.5 -227 l-119 -201l-139 -218q-78 -120 -153.5 -219t-151.5 -184.5t-146.5 -133.5t-124.5 -48q-71 0 -113.5 36t-42.5 95q0 47 15 88q4 -25 43 -40t84 -15q183 0 432 358q-28 12 -44 39t-17.5 52t-6.5 47l-86 587q-8 64 -22 108t-30.5 63t-29 25.5t-24.5 6.5l-13 -2l-20 35 q42 40 99 70t104 30q51 0 72.5 -28.5t21.5 -96.5v-6q0 -88 82 -594q6 -50 45 -141z" />
<glyph unicode="&#xff;" horiz-adv-x="921" d="M465 168q121 193 216 385.5t95 288.5q0 49 -22.5 89t-67.5 50q27 45 102 45q123 0 123 -129q0 -90 -51.5 -215t-109.5 -227l-119 -201l-139 -218q-78 -120 -153.5 -219t-151.5 -184.5t-146.5 -133.5t-124.5 -48q-71 0 -113.5 36t-42.5 95q0 47 15 88q4 -25 43 -40t84 -15 q183 0 432 358q-28 12 -44 39t-17.5 52t-6.5 47l-86 587q-8 64 -22 108t-30.5 63t-29 25.5t-24.5 6.5l-13 -2l-20 35q42 40 99 70t104 30q51 0 72.5 -28.5t21.5 -96.5v-6q0 -88 82 -594q6 -50 45 -141zM477 1313q0 -47 -30 -80t-72 -33t-72.5 33t-30.5 80q0 46 31 79t72 33 t71.5 -33t30.5 -79zM854 1313q0 -47 -30 -80t-72 -33t-72.5 32.5t-30.5 80.5q0 46 30.5 79t72.5 33q41 0 71.5 -33t30.5 -79z" />
<glyph unicode="&#x131;" horiz-adv-x="542" d="M92 0l2 8q150 785 150 817q1 37 -15 55.5t-41 18.5q-10 0 -16 -2l-18 33q35 41 97 72.5t120 31.5q39 0 58 -27q17 -24 17 -61v-8q0 -19 -9.5 -63t-21.5 -92.5t-14 -57.5q-9 -47 -45 -267l-51 -304q-12 -64 -12 -117q0 -25 -2 -37h-199z" />
<glyph unicode="&#x152;" horiz-adv-x="1683" d="M842 1352h442l346 6q19 -29 19 -80q0 -20 -3 -44q-11 -84 -34 -104h-39q0 47 -53 78.5t-136 34.5l-170 6l-15 -83q-15 -84 -28 -142l-61 -279h311q28 0 48 6.5t26 13.5l6 7l-4 -41q-4 -24 -14.5 -42.5t-21.5 -30t-30 -20t-32 -12.5t-36.5 -6t-33.5 -2h-33q-157 0 -211 -2 q-70 -374 -84 -475q-3 -6 0 -12h379q28 0 47.5 6.5t24.5 13.5l6 7v-13q0 -13 -4 -28q-6 -33 -23.5 -56t-35.5 -34.5t-48 -17t-47 -6.5t-47 -1h-657q-103 0 -193 34t-158 98t-107.5 163t-39.5 221q0 179 60.5 336t162 266t237.5 171.5t284 62.5zM707 109h86l6 30l178 951 q14 77 14 128q0 18 -2 33h-192q-78 0 -161 -51t-152 -137.5t-113.5 -215t-44.5 -269.5q0 -208 105.5 -338.5t275.5 -130.5z" />
<glyph unicode="&#x153;" horiz-adv-x="1572" d="M641 1038q150 0 233 -116q23 -30 27 -68q12 24 39 51q66 63 143.5 98t153.5 35q134 0 202 -58q66 -57 66 -153v-6q-2 -106 -82.5 -186.5t-205 -121t-269.5 -40.5h-41q-4 -32 -4 -53v-6q0 -68 21 -130q23 -64 76 -109.5t126 -45.5q85 0 175.5 48t160.5 132v-10 q0 -81 -58 -155q-61 -80 -155.5 -125.5t-189.5 -45.5q-91 0 -177 54.5t-116 136.5q-7 -18 -47 -60q-146 -131 -330 -131q-76 0 -133.5 27t-89.5 67.5t-51.5 96.5t-25.5 104q-5 41 -5 86v15q2 142 47 267t120 213t176.5 138.5t213.5 50.5zM555 934q-63 0 -113 -44 t-78.5 -107.5t-48 -141t-26.5 -136t-8 -102.5v-23q0 -132 42 -216q46 -90 134 -90q112 0 200.5 154t90.5 378v16q0 139 -48 223q-51 89 -145 89zM1208 924q-54 0 -105 -36t-87.5 -93t-62 -121.5t-35.5 -126.5q61 5 108 12.5t103 26t93 46t62.5 74.5t26.5 109v7q0 39 -22 69 q-24 33 -81 33z" />
<glyph unicode="&#x178;" horiz-adv-x="1003" d="M459 1599q0 -47 -30.5 -79.5t-72.5 -32.5t-72 32.5t-30 79.5q0 46 30.5 79.5t71.5 33.5q42 0 72.5 -33.5t30.5 -79.5zM938 1599q0 -47 -30 -79.5t-72 -32.5t-72.5 32.5t-30.5 79.5q0 46 30.5 79.5t72.5 33.5q41 0 71.5 -33.5t30.5 -79.5zM440 0h-219l6 33q62 302 70 350 l43 233q-14 18 -31 64l-116 344q-16 42 -32 90l-24 72q-8 23 -18.5 48.5t-19 37.5t-20 23t-28.5 18l21 35q65 28 141 28q64 0 94 -37q25 -117 85 -309.5t95 -275.5l60 80l225 301q47 64 47 122q0 29 -12 56l20 35q67 28 119 28q50 0 101 -28q-8 -37 -64.5 -129.5 t-105.5 -151.5l-324 -405q-39 -195 -59 -310q-49 -247 -54 -352z" />
<glyph unicode="&#x2c6;" horiz-adv-x="823" d="M449 1483h16q24 0 47 -27.5t44 -67.5l40 -82q21 -42 49.5 -75.5t59.5 -40.5q-3 -6 -31.5 -19.5t-50.5 -13.5q-90 0 -142.5 65.5t-58.5 168.5q-12 -29 -20.5 -46.5t-35.5 -57.5t-55.5 -64.5t-76.5 -45t-103 -20.5q-22 0 -46 13t-24 20q42 9 98 57t100 100t88.5 94t68.5 42 h33z" />
<glyph unicode="&#x2da;" horiz-adv-x="1064" d="M575 1505q-14 4 -43 4q-81 0 -135.5 -51t-54.5 -139q0 -77 50.5 -117.5t119.5 -40.5q80 0 136.5 53t56.5 134q0 61 -37 103.5t-93 53.5zM504 1217q-34 6 -56 36t-22 76q0 65 28 96t66 31q43 0 70.5 -29.5t27.5 -83.5q0 -66 -29 -97.5t-67 -31.5q-3 0 -9 1.5t-9 1.5z" />
<glyph unicode="&#x2dc;" horiz-adv-x="778" d="M37 1241q80 51 129 51q36 0 131.5 -34.5t175.5 -34.5q92 0 169 41t110 122q-98 -55 -154 -55q-41 0 -141.5 35t-157.5 35q-86 0 -159 -40t-103 -120z" />
<glyph unicode="&#x2000;" horiz-adv-x="912" />
<glyph unicode="&#x2001;" horiz-adv-x="1824" />
<glyph unicode="&#x2002;" horiz-adv-x="912" />
<glyph unicode="&#x2003;" horiz-adv-x="1824" />
<glyph unicode="&#x2004;" horiz-adv-x="608" />
<glyph unicode="&#x2005;" horiz-adv-x="456" />
<glyph unicode="&#x2006;" horiz-adv-x="304" />
<glyph unicode="&#x2007;" horiz-adv-x="304" />
<glyph unicode="&#x2008;" horiz-adv-x="228" />
<glyph unicode="&#x2009;" horiz-adv-x="364" />
<glyph unicode="&#x200a;" horiz-adv-x="101" />
<glyph unicode="&#x2010;" horiz-adv-x="618" d="M45 436l27 131q-1 -4 38.5 -5.5t76.5 -2t104 -0.5h103q48 0 85 1t63 5t36 10q-11 -31 -28 -54t-37 -37.5t-44.5 -25t-51 -14.5t-55.5 -6q-20 -2 -40 -2h-16q-29 1 -58 0q-27 0 -90 1t-76 1q-29 0 -37 -2z" />
<glyph unicode="&#x2011;" horiz-adv-x="618" d="M45 436l27 131q-1 -4 38.5 -5.5t76.5 -2t104 -0.5h103q48 0 85 1t63 5t36 10q-11 -31 -28 -54t-37 -37.5t-44.5 -25t-51 -14.5t-55.5 -6q-20 -2 -40 -2h-16q-29 1 -58 0q-27 0 -90 1t-76 1q-29 0 -37 -2z" />
<glyph unicode="&#x2013;" horiz-adv-x="925" d="M45 438l27 131q-2 -8 526 -8h102q49 0 86 1t63 5t36 11q-11 -31 -27.5 -54.5t-37 -38t-45 -24.5t-51 -14.5t-54.5 -6.5q-21 -2 -41 -2h-17q-28 1 -57 0q-27 0 -243.5 1t-229.5 1q-29 0 -37 -2z" />
<glyph unicode="&#x2014;" horiz-adv-x="1390" d="M39 438l27 131q-3 -8 997 -8h103q48 0 85 1t63 5t36 11q-11 -31 -28 -54.5t-37 -38t-44.5 -24.5t-51 -14.5t-55.5 -6.5q-20 -2 -40 -2h-16q-29 1 -58 0q-27 0 -479 1t-465 1q-29 0 -37 -2z" />
<glyph unicode="&#x2018;" horiz-adv-x="428" d="M426 1161q2 0 2 -20q0 -49 -36.5 -77t-88.5 -28q-37 0 -66.5 32t-29.5 81q0 83 85 188t245 195l26 -49q-105 -92 -144.5 -145.5t-39.5 -118.5q0 -58 47 -58z" />
<glyph unicode="&#x2019;" horiz-adv-x="428" d="M270 1401q-2 0 -2 20q0 49 36.5 77t88.5 28q37 0 66.5 -32t29.5 -81q0 -83 -85 -188t-244 -195l-27 49q105 92 144.5 145.5t39.5 118.5q0 58 -47 58z" />
<glyph unicode="&#x201a;" horiz-adv-x="428" d="M90 68q-2 0 -2 20q0 49 36.5 77t88.5 28q37 0 66.5 -32.5t29.5 -80.5q0 -83 -84.5 -188t-244.5 -195l-27 49q105 92 144.5 145.5t39.5 118.5q0 58 -47 58z" />
<glyph unicode="&#x201c;" horiz-adv-x="806" d="M426 1161q2 0 2 -20q0 -49 -36.5 -77t-88.5 -28q-37 0 -66.5 32t-29.5 81q0 83 85 188t245 195l26 -49q-105 -92 -144.5 -145.5t-39.5 -118.5q0 -58 47 -58zM805 1161q2 0 2 -20q0 -49 -36.5 -77t-88.5 -28q-37 0 -66.5 32t-29.5 81q0 83 85 188t244 195l27 -49 q-105 -92 -144.5 -145.5t-39.5 -118.5q0 -58 47 -58z" />
<glyph unicode="&#x201d;" horiz-adv-x="806" d="M649 1407q-2 0 -2 20q0 49 36.5 77t88.5 28q37 0 66.5 -32t29.5 -81q0 -83 -85 -188t-244 -195l-27 49q105 92 144.5 145.5t39.5 119.5q0 57 -47 57zM270 1407q-2 0 -2 20q0 49 36.5 77t88.5 28q37 0 66.5 -32t29.5 -81q0 -83 -85 -188t-244 -195l-27 49 q105 92 144.5 145.5t39.5 119.5q0 57 -47 57z" />
<glyph unicode="&#x201e;" horiz-adv-x="788" d="M90 68q-2 0 -2 20q0 49 36.5 77t88.5 28q37 0 66.5 -32.5t29.5 -80.5q0 -83 -84.5 -188t-244.5 -195l-27 49q105 92 144.5 145.5t39.5 118.5q0 58 -47 58zM451 68q-2 0 -2 20q0 49 36 77t88 28q38 0 67.5 -32.5t29.5 -80.5q0 -83 -85 -188t-245 -195l-27 49 q105 92 145 145.5t40 118.5q0 58 -47 58z" />
<glyph unicode="&#x2022;" horiz-adv-x="868" d="M432 758q104 0 179 -74t75 -178q0 -105 -74.5 -179.5t-179.5 -74.5q-106 0 -180 74t-74 180q0 104 74 178t180 74z" />
<glyph unicode="&#x2026;" horiz-adv-x="1357" d="M377 84q0 -46 -32 -78.5t-77 -32.5q-46 0 -78 32.5t-32 78.5q0 44 32 76.5t78 32.5q45 0 77 -32.5t32 -76.5zM797 84q0 -46 -32 -78.5t-77 -32.5q-46 0 -78 32.5t-32 78.5q0 44 32 76.5t78 32.5q45 0 77 -32.5t32 -76.5zM1206 84q0 -46 -32 -78.5t-76 -32.5 q-46 0 -78.5 32.5t-32.5 78.5q0 45 32.5 77t78.5 32q44 0 76 -32.5t32 -76.5z" />
<glyph unicode="&#x202f;" horiz-adv-x="364" />
<glyph unicode="&#x2039;" horiz-adv-x="755" d="M80 506l47 41l332 319q124 121 213 121q47 0 73 -31q-19 -6 -47 -27t-46 -39l-19 -18l-285 -303q-21 -21 -50 -42l-30 -21l22 -21q21 -21 32 -43l170 -303l11 -17q11 -18 31 -39t37 -28q-44 -28 -88 -28q-89 0 -166 118l-204 320z" />
<glyph unicode="&#x203a;" horiz-adv-x="755" d="M662 506l-13 14q-13 14 -22 27l-205 319q-75 121 -166 121q-48 0 -88 -31q17 -6 37 -27t31 -39l12 -18l170 -303q10 -21 32 -42l23 -21l-31 -21q-30 -21 -51 -43l-285 -303l-42 -37q-42 -38 -68 -47q28 -28 74 -28h5q82 0 206 118l331 320z" />
<glyph unicode="&#x2044;" horiz-adv-x="1011" d="M125 0h-145l712 1027q184 274 189 323q38 30 82 30q61 0 61 -41q0 -32 -40 -92t-56 -78q-2 -3 -186 -262l-370 -532q-188 -273 -247 -375z" />
<glyph unicode="&#x205f;" horiz-adv-x="456" />
<glyph unicode="&#x20ac;" horiz-adv-x="1200" d="M35 731l43 131q42 -6 131 -6q102 235 301.5 375.5t441.5 140.5q120 0 204.5 -44t84.5 -91q0 -57 -57 -98q-5 40 -78.5 75t-202.5 35q-173 0 -318 -112.5t-214 -282.5h385h102q48 0 84.5 1t62.5 5t35 10q-11 -31 -28 -54t-37 -37.5t-44 -24.5t-50 -14.5t-54.5 -7 t-56.5 -1.5t-57 0h-379q-20 -90 -23 -164h267h102q49 0 87 1t64.5 5t36.5 11q-11 -31 -28 -54.5t-38 -38t-45.5 -24.5t-51 -14.5t-55.5 -7t-57.5 -1.5t-57.5 0h-222q34 -354 392 -354q54 0 146.5 28t166.5 91q-24 -119 -129 -178.5t-271 -59.5q-232 0 -357 131.5t-130 343.5 h-111q-26 0 -34 -2l43 131q28 -4 106 -4q5 64 31 162h-94q-29 0 -37 -2z" />
<glyph unicode="&#x2122;" horiz-adv-x="1642" d="M1499 686h-149q9 78 39.5 226t33.5 165q13 56 13 92q0 42 -18 61t-58 19q-94 0 -176 -65q-82 -397 -82 -498h-150q8 58 20 123t29 145.5t25 122.5q10 46 10 90t-17 63t-56 19q-104 0 -193 -84q-2 -12 -23.5 -118t-37 -204.5t-15.5 -156.5h-155l96 459q8 32 8 63 q0 36 -12.5 57t-24.5 24l-12 3l8 41q72 37 135 37q66 0 66 -57q0 -14 -12 -60q119 121 260 121q61 0 97.5 -34t41.5 -87q115 121 260 121q64 0 100.5 -39.5t36.5 -97.5q0 -18 -2 -29l-16 -88l-27 -126q-23 -108 -34 -176q-9 -58 -9 -99v-14v-19zM367 1462l-37 -108h129 q26 0 45.5 6.5t25.5 13.5l7 6q2 -6 2 -16q0 -48 -37.5 -79.5t-95.5 -31.5q-8 0 -37.5 1t-42.5 1h-15q-12 -64 -30.5 -150t-28.5 -140q-14 -68 -14 -101q0 -67 69 -67q38 0 82.5 15.5t54.5 29.5q0 -66 -55.5 -120t-142.5 -54q-152 0 -152 149q0 54 39 208t39 206 q0 11 -3.5 20t-8.5 15t-11.5 11t-12.5 7.5t-11.5 4.5t-7.5 3h-2l16 62q72 0 154 108h82z" />
</font>
</defs>
</svg>
